<mxfile host="app.diagrams.net" modified="2023-05-15T14:09:22.395Z" agent="Mozilla/5.0 (Windows NT 10.0; Win64; x64) AppleWebKit/537.36 (KHTML, like Gecko) Chrome/113.0.0.0 Safari/537.36" etag="S5Q6pz58bB8WXdzuKemk" version="21.2.9" type="device" pages="2">
  <diagram id="l3PhLfIEEx4KEpYzrtBJ" name="EER Model">
    <mxGraphModel dx="1434" dy="788" grid="1" gridSize="10" guides="1" tooltips="1" connect="1" arrows="1" fold="0" page="1" pageScale="1" pageWidth="1169" pageHeight="827" math="0" shadow="0">
      <root>
        <mxCell id="0" />
        <mxCell id="1" parent="0" />
        <UserObject label="%date{ddd mmm dd yyyy HH:MM:ss}%" placeholders="1" id="hCRLPxILE3BBqmNvxjHh-2">
          <mxCell style="text;html=1;align=center;verticalAlign=middle;whiteSpace=wrap;overflow=hidden;fontColor=#FCFCFC;movable=0;resizable=0;rotatable=0;deletable=0;editable=0;connectable=0;" parent="1" vertex="1">
            <mxGeometry x="1000" y="800" width="160" height="20" as="geometry" />
          </mxCell>
        </UserObject>
        <mxCell id="hCRLPxILE3BBqmNvxjHh-6" value="" style="shape=filledEdge;rounded=0;fixDash=1;endArrow=none;strokeWidth=10;fillColor=#ffffff;edgeStyle=orthogonalEdgeStyle;fontColor=#FCFCFC;" parent="1" edge="1">
          <mxGeometry width="60" height="40" relative="1" as="geometry">
            <mxPoint x="10" y="790" as="sourcePoint" />
            <mxPoint x="40" y="820" as="targetPoint" />
            <Array as="points">
              <mxPoint x="10" y="820" />
            </Array>
          </mxGeometry>
        </mxCell>
        <mxCell id="hCRLPxILE3BBqmNvxjHh-7" value="" style="shape=filledEdge;rounded=0;fixDash=1;endArrow=none;strokeWidth=10;fillColor=#ffffff;edgeStyle=orthogonalEdgeStyle;fontColor=#FCFCFC;" parent="1" edge="1">
          <mxGeometry width="60" height="40" relative="1" as="geometry">
            <mxPoint x="1130" y="10" as="sourcePoint" />
            <mxPoint x="1160" y="40" as="targetPoint" />
            <Array as="points">
              <mxPoint x="1160" y="10" />
            </Array>
          </mxGeometry>
        </mxCell>
        <mxCell id="hCRLPxILE3BBqmNvxjHh-8" value="" style="shape=filledEdge;rounded=0;fixDash=1;endArrow=none;strokeWidth=10;fillColor=#ffffff;edgeStyle=orthogonalEdgeStyle;fontColor=#FCFCFC;" parent="1" edge="1">
          <mxGeometry width="60" height="40" relative="1" as="geometry">
            <mxPoint x="1129.99" y="820" as="sourcePoint" />
            <mxPoint x="1159.99" y="790" as="targetPoint" />
            <Array as="points">
              <mxPoint x="1159.99" y="820" />
            </Array>
          </mxGeometry>
        </mxCell>
        <mxCell id="hCRLPxILE3BBqmNvxjHh-10" value="&lt;table style=&quot;width: 100% ; height: 100% ; border-collapse: collapse&quot; width=&quot;100%&quot; cellpadding=&quot;4&quot; border=&quot;1&quot;&gt;&lt;tbody&gt;&lt;tr&gt;&lt;th&gt;Assignment #:&lt;/th&gt;&lt;td&gt;4b&lt;/td&gt;&lt;/tr&gt;&lt;tr&gt;&lt;td&gt;Description:&lt;/td&gt;&lt;td&gt;EER Model&lt;/td&gt;&lt;/tr&gt;&lt;tr&gt;&lt;td&gt;Students:&lt;/td&gt;&lt;td&gt;Philip Svensson&lt;br&gt;Mohammed Al-Hashimi&lt;br&gt;&lt;/td&gt;&lt;/tr&gt;&lt;tr&gt;&lt;td&gt;Gitlab URL:&lt;/td&gt;&lt;td&gt;&lt;a href=&quot;https://gitlab.liu.se/alial32/db&quot;&gt;https://gitlab.liu.se/phisv708/db&lt;/a&gt;&lt;/td&gt;&lt;/tr&gt;&lt;/tbody&gt;&lt;/table&gt;" style="text;html=1;strokeColor=none;fillColor=none;overflow=fill;fontColor=#000000;" parent="1" vertex="1">
          <mxGeometry x="10" y="10" width="280" height="110" as="geometry" />
        </mxCell>
        <mxCell id="fbbdfI7BNAjC01HpYx0C-1" value="&lt;br&gt;Note:&lt;br&gt;&lt;ol&gt;&lt;li&gt;This template contains two pages (EER Model, Relational Model, see the bottom of the editor window).&lt;/li&gt;&lt;li&gt;Fit each diagram on one page, preserve the page size.&lt;br&gt;&lt;/li&gt;&lt;li&gt;Fill out the header at the top left corner on both pages.&lt;/li&gt;&lt;li&gt;&lt;span&gt;Keep the diagrams clean, i.e. shapes and lines should not overlap, maintain optimal distance between the objects, etc.&lt;/span&gt;&lt;br&gt;&lt;/li&gt;&lt;li&gt;Save a working copy as an XML .drawio file to be able to correct the diagrams in the future.&lt;/li&gt;&lt;li&gt;To submit the diagrams, they must be exported and uploaded to Gitlab as a PDF file (File-&amp;gt;Export as-&amp;gt;PDF-&amp;gt;All pages).&lt;/li&gt;&lt;/ol&gt;" style="shape=note;size=20;whiteSpace=wrap;html=1;strokeColor=#000000;fillColor=#ffffff;fontColor=#000000;align=left;" parent="1" vertex="1">
          <mxGeometry x="500" y="600" width="370" height="200" as="geometry" />
        </mxCell>
        <mxCell id="BH1sd3b4sbP9Z67Hy9HP-1" value="Notes:&lt;br&gt;&lt;ol&gt;&lt;li&gt;&lt;br&gt;&lt;/li&gt;&lt;/ol&gt;" style="shape=note;size=20;whiteSpace=wrap;html=1;strokeColor=#000000;fillColor=#ffffff;fontColor=#000000;align=left;" parent="1" vertex="1">
          <mxGeometry x="90" y="600" width="370" height="200" as="geometry" />
        </mxCell>
        <mxCell id="w0xwXOWwuQwDQIYsxM-U-19" value="c" style="group;fontSize=7;" parent="1" vertex="1" connectable="0">
          <mxGeometry x="870" y="510" width="270" height="293.5" as="geometry" />
        </mxCell>
        <mxCell id="w0xwXOWwuQwDQIYsxM-U-1" value="&lt;b style=&quot;font-size: 7px;&quot;&gt;Fill in cardinalities by placing a text block and labeling it 1, N or M&lt;/b&gt;" style="text;html=1;strokeColor=none;fillColor=none;align=center;verticalAlign=middle;whiteSpace=wrap;rounded=0;shadow=0;dashed=1;fontSize=7;" parent="w0xwXOWwuQwDQIYsxM-U-19" vertex="1">
          <mxGeometry x="32.73" y="260" width="227.27" height="26.11" as="geometry" />
        </mxCell>
        <mxCell id="w0xwXOWwuQwDQIYsxM-U-2" value="" style="shape=requiredInterface;html=1;verticalLabelPosition=bottom;shadow=0;fontSize=7;rotation=90;" parent="w0xwXOWwuQwDQIYsxM-U-19" vertex="1">
          <mxGeometry x="144.54545454545456" y="214.11921708185048" width="5.454545454545455" height="10.444839857651244" as="geometry" />
        </mxCell>
        <mxCell id="w0xwXOWwuQwDQIYsxM-U-3" value="" style="endArrow=none;html=1;strokeColor=#000000;fontSize=7;" parent="w0xwXOWwuQwDQIYsxM-U-19" edge="1">
          <mxGeometry width="50" height="50" relative="1" as="geometry">
            <mxPoint x="147.27272727272728" y="255.89857651245552" as="sourcePoint" />
            <mxPoint x="147.27272727272728" y="208.8967971530249" as="targetPoint" />
          </mxGeometry>
        </mxCell>
        <mxCell id="w0xwXOWwuQwDQIYsxM-U-4" value="&lt;font style=&quot;font-size: 7px;&quot;&gt;Use this symbol ==&amp;gt; when showing subclasses &lt;/font&gt;" style="text;html=1;strokeColor=none;fillColor=none;align=center;verticalAlign=middle;whiteSpace=wrap;rounded=0;shadow=0;fontSize=7;" parent="w0xwXOWwuQwDQIYsxM-U-19" vertex="1">
          <mxGeometry x="21.81818181818182" y="211.50800711743773" width="92.72727272727272" height="41.77935943060498" as="geometry" />
        </mxCell>
        <mxCell id="w0xwXOWwuQwDQIYsxM-U-5" value="Attributes" style="ellipse;whiteSpace=wrap;html=1;align=center;shadow=0;gradientColor=none;fontSize=7;" parent="w0xwXOWwuQwDQIYsxM-U-19" vertex="1">
          <mxGeometry x="35.45454545454545" y="36.556939501779354" width="54.54545454545455" height="20.88967971530249" as="geometry" />
        </mxCell>
        <mxCell id="w0xwXOWwuQwDQIYsxM-U-6" value="Relationship" style="shape=rhombus;perimeter=rhombusPerimeter;whiteSpace=wrap;html=1;align=center;shadow=0;gradientColor=none;fontSize=7;" parent="w0xwXOWwuQwDQIYsxM-U-19" vertex="1">
          <mxGeometry x="30" y="75.72508896797152" width="65.45454545454545" height="28.723309608540923" as="geometry" />
        </mxCell>
        <mxCell id="w0xwXOWwuQwDQIYsxM-U-7" value="weak entity" style="shape=ext;margin=3;double=1;whiteSpace=wrap;html=1;align=center;shadow=0;gradientColor=none;fontSize=7;" parent="w0xwXOWwuQwDQIYsxM-U-19" vertex="1">
          <mxGeometry x="117.27272727272727" width="54.54545454545455" height="20.88967971530249" as="geometry" />
        </mxCell>
        <mxCell id="w0xwXOWwuQwDQIYsxM-U-10" value="key Attribute" style="ellipse;whiteSpace=wrap;html=1;align=center;fontStyle=4;shadow=0;gradientColor=none;fontSize=7;" parent="w0xwXOWwuQwDQIYsxM-U-19" vertex="1">
          <mxGeometry x="35.45454545454545" y="125.33807829181494" width="54.54545454545455" height="20.88967971530249" as="geometry" />
        </mxCell>
        <mxCell id="w0xwXOWwuQwDQIYsxM-U-12" value="derived attribute" style="ellipse;whiteSpace=wrap;html=1;align=center;dashed=1;shadow=0;gradientColor=none;fontSize=7;" parent="w0xwXOWwuQwDQIYsxM-U-19" vertex="1">
          <mxGeometry x="204.55" y="121.9" width="55.45" height="24.66" as="geometry" />
        </mxCell>
        <mxCell id="w0xwXOWwuQwDQIYsxM-U-14" value="E2" style="rounded=1;arcSize=10;whiteSpace=wrap;html=1;align=center;shadow=0;gradientColor=none;fontSize=7;" parent="w0xwXOWwuQwDQIYsxM-U-19" vertex="1">
          <mxGeometry x="237.27272727272722" y="167.1174377224199" width="32.72727272727273" height="15.667259786476867" as="geometry" />
        </mxCell>
        <mxCell id="w0xwXOWwuQwDQIYsxM-U-15" value="R" style="shape=rhombus;perimeter=rhombusPerimeter;whiteSpace=wrap;html=1;align=center;shadow=0;gradientColor=none;fontSize=7;" parent="w0xwXOWwuQwDQIYsxM-U-19" vertex="1">
          <mxGeometry x="155.45454545454544" y="165.1590302491103" width="49.090909090909086" height="19.584074733096084" as="geometry" />
        </mxCell>
        <mxCell id="w0xwXOWwuQwDQIYsxM-U-9" value="" style="shape=link;html=1;rounded=0;entryX=0;entryY=0.5;entryDx=0;entryDy=0;exitX=1;exitY=0.5;exitDx=0;exitDy=0;fontSize=7;" parent="w0xwXOWwuQwDQIYsxM-U-19" source="w0xwXOWwuQwDQIYsxM-U-15" target="w0xwXOWwuQwDQIYsxM-U-14" edge="1">
          <mxGeometry relative="1" as="geometry">
            <mxPoint x="193.63636363636365" y="177.56227758007117" as="sourcePoint" />
            <mxPoint x="193.63636363636365" y="177.30115658362988" as="targetPoint" />
          </mxGeometry>
        </mxCell>
        <mxCell id="w0xwXOWwuQwDQIYsxM-U-16" value="E1" style="rounded=1;arcSize=10;whiteSpace=wrap;html=1;align=center;shadow=0;gradientColor=none;fontSize=7;" parent="w0xwXOWwuQwDQIYsxM-U-19" vertex="1">
          <mxGeometry x="106.36363636363636" y="167.1174377224199" width="32.72727272727273" height="15.667259786476867" as="geometry" />
        </mxCell>
        <mxCell id="w0xwXOWwuQwDQIYsxM-U-17" value="" style="endArrow=none;html=1;rounded=0;exitX=0;exitY=0.5;exitDx=0;exitDy=0;entryX=1;entryY=0.5;entryDx=0;entryDy=0;fontSize=7;" parent="w0xwXOWwuQwDQIYsxM-U-19" source="w0xwXOWwuQwDQIYsxM-U-15" target="w0xwXOWwuQwDQIYsxM-U-16" edge="1">
          <mxGeometry relative="1" as="geometry">
            <mxPoint x="-237.27272727272722" y="302.90035587188606" as="sourcePoint" />
            <mxPoint x="-150" y="302.90035587188606" as="targetPoint" />
          </mxGeometry>
        </mxCell>
        <mxCell id="w0xwXOWwuQwDQIYsxM-U-18" value="&lt;font style=&quot;font-size: 7px;&quot;&gt;Total participation of E2 in R&lt;/font&gt;" style="text;html=1;align=center;verticalAlign=middle;resizable=0;points=[];autosize=1;fontSize=7;" parent="w0xwXOWwuQwDQIYsxM-U-19" vertex="1">
          <mxGeometry x="122.72923006205471" y="189.99994323339143" width="100" height="10" as="geometry" />
        </mxCell>
        <mxCell id="w0xwXOWwuQwDQIYsxM-U-24" value="&lt;span style=&quot;border-bottom: 1px dotted&quot;&gt;part of key attribute&lt;/span&gt;" style="ellipse;whiteSpace=wrap;html=1;align=center;strokeColor=#000000;fillColor=#ffffff;fontSize=7;fontColor=#000000;" parent="w0xwXOWwuQwDQIYsxM-U-19" vertex="1">
          <mxGeometry x="109.55" y="122.23" width="75.45" height="24" as="geometry" />
        </mxCell>
        <mxCell id="w0xwXOWwuQwDQIYsxM-U-25" value="multivalued attribute" style="ellipse;shape=doubleEllipse;margin=3;whiteSpace=wrap;html=1;align=center;strokeColor=#000000;fillColor=#ffffff;fontSize=7;fontColor=#000000;" parent="w0xwXOWwuQwDQIYsxM-U-19" vertex="1">
          <mxGeometry x="109.55" y="33.45" width="65" height="24" as="geometry" />
        </mxCell>
        <mxCell id="w0xwXOWwuQwDQIYsxM-U-26" value="identifying relationship" style="shape=rhombus;double=1;perimeter=rhombusPerimeter;whiteSpace=wrap;html=1;align=center;strokeColor=#000000;fillColor=#ffffff;fontSize=7;fontColor=#000000;" parent="w0xwXOWwuQwDQIYsxM-U-19" vertex="1">
          <mxGeometry x="106.36" y="68.09" width="73" height="44" as="geometry" />
        </mxCell>
        <mxCell id="w0xwXOWwuQwDQIYsxM-U-27" value="Entity" style="whiteSpace=wrap;html=1;align=center;strokeColor=#000000;fillColor=#ffffff;fontSize=7;fontColor=#000000;" parent="w0xwXOWwuQwDQIYsxM-U-19" vertex="1">
          <mxGeometry x="35.45" width="57" height="20.89" as="geometry" />
        </mxCell>
        <mxCell id="6YndOh8D73mqKDZ_mxwR-6" value="Airport" style="align=center;strokeColor=#6c8ebf;fillColor=#dae8fc;fontSize=11;labelBackgroundColor=none;shadow=0;fillStyle=auto;fontStyle=1;whiteSpace=wrap;html=1;" parent="1" vertex="1">
          <mxGeometry x="749.24" y="111.73000000000002" width="70" height="30" as="geometry" />
        </mxCell>
        <mxCell id="6YndOh8D73mqKDZ_mxwR-11" value="" style="edgeStyle=none;shape=connector;rounded=0;orthogonalLoop=1;jettySize=auto;html=1;labelBackgroundColor=default;strokeColor=default;fontFamily=Helvetica;fontSize=10;fontColor=default;endArrow=none;endFill=0;" parent="1" source="6YndOh8D73mqKDZ_mxwR-10" target="6YndOh8D73mqKDZ_mxwR-6" edge="1">
          <mxGeometry relative="1" as="geometry" />
        </mxCell>
        <mxCell id="6YndOh8D73mqKDZ_mxwR-10" value="Name" style="ellipse;whiteSpace=wrap;html=1;align=center;strokeColor=#000000;fillColor=#ffffff;fontSize=7;" parent="1" vertex="1">
          <mxGeometry x="759.36" y="44" width="50" height="30" as="geometry" />
        </mxCell>
        <mxCell id="6YndOh8D73mqKDZ_mxwR-12" value="Country" style="ellipse;whiteSpace=wrap;html=1;align=center;strokeColor=#000000;fillColor=#ffffff;fontSize=7;" parent="1" vertex="1">
          <mxGeometry x="819.24" y="64" width="50" height="30" as="geometry" />
        </mxCell>
        <mxCell id="6YndOh8D73mqKDZ_mxwR-15" value="Route" style="align=center;strokeColor=#6c8ebf;fillColor=#dae8fc;fontSize=10;labelBackgroundColor=none;shadow=0;fillStyle=auto;fontStyle=1;whiteSpace=wrap;html=1;" parent="1" vertex="1">
          <mxGeometry x="749.24" y="211.00000000000003" width="70" height="30" as="geometry" />
        </mxCell>
        <mxCell id="6YndOh8D73mqKDZ_mxwR-42" value="" style="edgeStyle=none;shape=link;rounded=0;orthogonalLoop=1;jettySize=auto;html=1;labelBackgroundColor=default;strokeColor=default;fontFamily=Helvetica;fontSize=7;fontColor=default;endArrow=none;endFill=0;entryX=0.231;entryY=0.023;entryDx=0;entryDy=0;entryPerimeter=0;" parent="1" source="6YndOh8D73mqKDZ_mxwR-41" target="6YndOh8D73mqKDZ_mxwR-15" edge="1">
          <mxGeometry relative="1" as="geometry" />
        </mxCell>
        <mxCell id="6YndOh8D73mqKDZ_mxwR-43" value="" style="edgeStyle=none;shape=connector;rounded=0;orthogonalLoop=1;jettySize=auto;html=1;labelBackgroundColor=default;strokeColor=default;fontFamily=Helvetica;fontSize=7;fontColor=default;endArrow=none;endFill=0;entryX=0.223;entryY=1.02;entryDx=0;entryDy=0;entryPerimeter=0;" parent="1" source="6YndOh8D73mqKDZ_mxwR-41" target="6YndOh8D73mqKDZ_mxwR-6" edge="1">
          <mxGeometry relative="1" as="geometry" />
        </mxCell>
        <mxCell id="6YndOh8D73mqKDZ_mxwR-41" value="To" style="shape=rhombus;perimeter=rhombusPerimeter;whiteSpace=wrap;html=1;align=center;shadow=0;fontSize=7;fillColor=#fff2cc;strokeColor=#d6b656;" parent="1" vertex="1">
          <mxGeometry x="751.51" y="161.93" width="27.49" height="28.72" as="geometry" />
        </mxCell>
        <mxCell id="6YndOh8D73mqKDZ_mxwR-46" value="&lt;span style=&quot;font-weight: normal; font-size: 7px;&quot;&gt;N&lt;/span&gt;" style="text;strokeColor=none;fillColor=none;html=1;fontSize=7;fontStyle=1;verticalAlign=middle;align=center;fontFamily=Helvetica;fontColor=default;" parent="1" vertex="1">
          <mxGeometry x="770.04" y="198.44000000000003" width="7.96" height="8.64" as="geometry" />
        </mxCell>
        <mxCell id="6YndOh8D73mqKDZ_mxwR-50" value="" style="edgeStyle=none;shape=connector;rounded=0;orthogonalLoop=1;jettySize=auto;html=1;labelBackgroundColor=default;strokeColor=default;fontFamily=Helvetica;fontSize=7;fontColor=default;endArrow=none;endFill=0;" parent="1" source="6YndOh8D73mqKDZ_mxwR-12" target="6YndOh8D73mqKDZ_mxwR-6" edge="1">
          <mxGeometry relative="1" as="geometry">
            <mxPoint x="599.24" y="49" as="sourcePoint" />
            <mxPoint x="579.24" y="129" as="targetPoint" />
          </mxGeometry>
        </mxCell>
        <mxCell id="6YndOh8D73mqKDZ_mxwR-59" value="1" style="text;strokeColor=none;fillColor=none;html=1;fontSize=7;fontStyle=1;verticalAlign=middle;align=center;fontFamily=Helvetica;fontColor=default;" parent="1" vertex="1">
          <mxGeometry x="758.96" y="137.72" width="25" height="22.64" as="geometry" />
        </mxCell>
        <mxCell id="6YndOh8D73mqKDZ_mxwR-60" value="Booking" style="align=center;strokeColor=#6c8ebf;fillColor=#dae8fc;fontSize=10;labelBackgroundColor=none;shadow=0;fillStyle=auto;fontStyle=1;whiteSpace=wrap;html=1;" parent="1" vertex="1">
          <mxGeometry x="374.09000000000003" y="365.8500000000001" width="70" height="30" as="geometry" />
        </mxCell>
        <mxCell id="6YndOh8D73mqKDZ_mxwR-94" value="" style="edgeStyle=none;shape=link;rounded=0;orthogonalLoop=1;jettySize=auto;html=1;labelBackgroundColor=default;strokeColor=default;fontFamily=Helvetica;fontSize=7;fontColor=default;endArrow=none;endFill=0;" parent="1" source="6YndOh8D73mqKDZ_mxwR-61" target="6YndOh8D73mqKDZ_mxwR-92" edge="1">
          <mxGeometry relative="1" as="geometry" />
        </mxCell>
        <mxCell id="Zno4iptjPScqtW-oI-4n-2" value="" style="rounded=0;orthogonalLoop=1;jettySize=auto;html=1;endArrow=none;endFill=0;" parent="1" source="6YndOh8D73mqKDZ_mxwR-61" target="6YndOh8D73mqKDZ_mxwR-60" edge="1">
          <mxGeometry relative="1" as="geometry" />
        </mxCell>
        <mxCell id="6YndOh8D73mqKDZ_mxwR-61" value="Reservation" style="align=center;strokeColor=#6c8ebf;fillColor=#dae8fc;fontSize=10;labelBackgroundColor=none;shadow=0;fillStyle=auto;fontStyle=1;whiteSpace=wrap;html=1;" parent="1" vertex="1">
          <mxGeometry x="469.34000000000003" y="201.32" width="70" height="30" as="geometry" />
        </mxCell>
        <mxCell id="6YndOh8D73mqKDZ_mxwR-66" value="Weekly Schedule" style="align=center;strokeColor=#6c8ebf;fillColor=#dae8fc;fontSize=10;labelBackgroundColor=none;shadow=0;fillStyle=auto;fontStyle=1;whiteSpace=wrap;html=1;" parent="1" vertex="1">
          <mxGeometry x="749.24" y="314.68000000000006" width="70" height="30" as="geometry" />
        </mxCell>
        <mxCell id="6YndOh8D73mqKDZ_mxwR-68" value="" style="edgeStyle=none;shape=link;rounded=0;orthogonalLoop=1;jettySize=auto;html=1;labelBackgroundColor=default;strokeColor=default;fontFamily=Helvetica;fontSize=7;fontColor=default;endArrow=none;endFill=0;" parent="1" source="6YndOh8D73mqKDZ_mxwR-67" target="6YndOh8D73mqKDZ_mxwR-66" edge="1">
          <mxGeometry relative="1" as="geometry" />
        </mxCell>
        <mxCell id="6YndOh8D73mqKDZ_mxwR-69" value="" style="edgeStyle=none;shape=connector;rounded=0;orthogonalLoop=1;jettySize=auto;html=1;labelBackgroundColor=default;strokeColor=default;fontFamily=Helvetica;fontSize=7;fontColor=default;endArrow=none;endFill=0;entryX=0.5;entryY=1;entryDx=0;entryDy=0;" parent="1" source="6YndOh8D73mqKDZ_mxwR-67" target="6YndOh8D73mqKDZ_mxwR-15" edge="1">
          <mxGeometry relative="1" as="geometry" />
        </mxCell>
        <mxCell id="6YndOh8D73mqKDZ_mxwR-67" value="Has" style="shape=rhombus;perimeter=rhombusPerimeter;whiteSpace=wrap;html=1;align=center;shadow=0;fontSize=7;fillColor=#fff2cc;strokeColor=#d6b656;" parent="1" vertex="1">
          <mxGeometry x="758.92" y="262.67508896797153" width="50" height="28.723309608540923" as="geometry" />
        </mxCell>
        <mxCell id="6YndOh8D73mqKDZ_mxwR-75" value="" style="edgeStyle=none;shape=connector;rounded=0;orthogonalLoop=1;jettySize=auto;html=1;labelBackgroundColor=default;strokeColor=default;fontFamily=Helvetica;fontSize=7;fontColor=default;endArrow=none;endFill=0;" parent="1" source="6YndOh8D73mqKDZ_mxwR-72" target="AWn3woIT9S4quaAHqm3O-38" edge="1">
          <mxGeometry relative="1" as="geometry" />
        </mxCell>
        <mxCell id="6YndOh8D73mqKDZ_mxwR-72" value="&lt;u&gt;Year&lt;/u&gt;" style="ellipse;whiteSpace=wrap;html=1;align=center;strokeColor=#000000;fillColor=#ffffff;fontSize=7;" parent="1" vertex="1">
          <mxGeometry x="878.0000000000001" y="449.85" width="50" height="30" as="geometry" />
        </mxCell>
        <mxCell id="6YndOh8D73mqKDZ_mxwR-74" value="" style="edgeStyle=none;shape=connector;rounded=0;orthogonalLoop=1;jettySize=auto;html=1;labelBackgroundColor=default;strokeColor=default;fontFamily=Helvetica;fontSize=7;fontColor=default;endArrow=none;endFill=0;" parent="1" source="90X4HFMlRFY5UPveN02o-1" target="AWn3woIT9S4quaAHqm3O-36" edge="1">
          <mxGeometry relative="1" as="geometry">
            <mxPoint x="764.4506068251076" y="451.2345315674138" as="sourcePoint" />
          </mxGeometry>
        </mxCell>
        <mxCell id="6YndOh8D73mqKDZ_mxwR-76" value="Time of Departure" style="ellipse;whiteSpace=wrap;html=1;align=center;strokeColor=#000000;fillColor=#ffffff;fontSize=7;" parent="1" vertex="1">
          <mxGeometry x="835.4600000000002" y="333.12000000000006" width="50" height="30" as="geometry" />
        </mxCell>
        <mxCell id="6YndOh8D73mqKDZ_mxwR-77" value="" style="edgeStyle=none;shape=connector;rounded=0;orthogonalLoop=1;jettySize=auto;html=1;labelBackgroundColor=default;strokeColor=default;fontFamily=Helvetica;fontSize=7;fontColor=default;endArrow=none;endFill=0;" parent="1" source="6YndOh8D73mqKDZ_mxwR-76" target="6YndOh8D73mqKDZ_mxwR-66" edge="1">
          <mxGeometry relative="1" as="geometry" />
        </mxCell>
        <mxCell id="e-1JwnE7ZOLf_Y56nIoI-22" value="Flight" style="align=center;strokeColor=#6c8ebf;fillColor=#dae8fc;fontSize=10;labelBackgroundColor=none;shadow=0;fillStyle=auto;fontStyle=1;whiteSpace=wrap;html=1;" parent="1" vertex="1">
          <mxGeometry x="575" y="315.96000000000004" width="70" height="30" as="geometry" />
        </mxCell>
        <mxCell id="6YndOh8D73mqKDZ_mxwR-85" value="" style="edgeStyle=none;shape=connector;rounded=0;orthogonalLoop=1;jettySize=auto;html=1;labelBackgroundColor=default;strokeColor=default;fontFamily=Helvetica;fontSize=7;fontColor=default;endArrow=none;endFill=0;entryX=-0.001;entryY=0.553;entryDx=0;entryDy=0;entryPerimeter=0;" parent="1" source="e-1JwnE7ZOLf_Y56nIoI-24" target="6YndOh8D73mqKDZ_mxwR-66" edge="1">
          <mxGeometry relative="1" as="geometry">
            <mxPoint x="719.4645454545457" y="330.83674377224213" as="sourcePoint" />
          </mxGeometry>
        </mxCell>
        <mxCell id="e-1JwnE7ZOLf_Y56nIoI-24" value="Instance of" style="shape=rhombus;perimeter=rhombusPerimeter;whiteSpace=wrap;html=1;align=center;shadow=0;fontSize=7;fillColor=#fff2cc;strokeColor=#d6b656;" parent="1" vertex="1">
          <mxGeometry x="673.04" y="315.9550889679715" width="50" height="28.723309608540923" as="geometry" />
        </mxCell>
        <mxCell id="6YndOh8D73mqKDZ_mxwR-87" value="&lt;span style=&quot;font-weight: normal; font-size: 7px;&quot;&gt;N&lt;/span&gt;" style="text;strokeColor=none;fillColor=none;html=1;fontSize=7;fontStyle=1;verticalAlign=middle;align=center;fontFamily=Helvetica;fontColor=default;" parent="1" vertex="1">
          <mxGeometry x="642" y="308.57000000000005" width="25" height="22.64" as="geometry" />
        </mxCell>
        <mxCell id="6YndOh8D73mqKDZ_mxwR-88" value="&lt;span style=&quot;font-weight: normal; font-size: 7px;&quot;&gt;1&lt;/span&gt;" style="text;strokeColor=none;fillColor=none;html=1;fontSize=7;fontStyle=1;verticalAlign=middle;align=center;fontFamily=Helvetica;fontColor=default;" parent="1" vertex="1">
          <mxGeometry x="728.51" y="310.48" width="25" height="22.64" as="geometry" />
        </mxCell>
        <mxCell id="6YndOh8D73mqKDZ_mxwR-90" value="" style="edgeStyle=none;shape=connector;rounded=0;orthogonalLoop=1;jettySize=auto;html=1;labelBackgroundColor=default;strokeColor=default;fontFamily=Helvetica;fontSize=7;fontColor=default;endArrow=none;endFill=0;" parent="1" source="6YndOh8D73mqKDZ_mxwR-89" target="e-1JwnE7ZOLf_Y56nIoI-22" edge="1">
          <mxGeometry relative="1" as="geometry" />
        </mxCell>
        <mxCell id="6YndOh8D73mqKDZ_mxwR-89" value="Week&lt;br&gt;Number" style="ellipse;whiteSpace=wrap;html=1;align=center;strokeColor=#000000;fillColor=#ffffff;fontSize=7;" parent="1" vertex="1">
          <mxGeometry x="616.0045454545453" y="364.6569395017793" width="50" height="30" as="geometry" />
        </mxCell>
        <mxCell id="6YndOh8D73mqKDZ_mxwR-106" value="" style="edgeStyle=none;shape=connector;rounded=0;orthogonalLoop=1;jettySize=auto;html=1;labelBackgroundColor=default;strokeColor=default;fontFamily=Helvetica;fontSize=7;fontColor=default;endArrow=none;endFill=0;entryX=0;entryY=0;entryDx=0;entryDy=0;" parent="1" source="6YndOh8D73mqKDZ_mxwR-92" target="e-1JwnE7ZOLf_Y56nIoI-22" edge="1">
          <mxGeometry relative="1" as="geometry" />
        </mxCell>
        <mxCell id="6YndOh8D73mqKDZ_mxwR-92" value="&lt;div&gt;Regarding&lt;/div&gt;&lt;div&gt;flight&lt;/div&gt;" style="shape=rhombus;perimeter=rhombusPerimeter;whiteSpace=wrap;html=1;align=center;shadow=0;fontSize=7;fillColor=#fff2cc;strokeColor=#d6b656;" parent="1" vertex="1">
          <mxGeometry x="521.9499999999998" y="263.63508896797157" width="50" height="28.723309608540923" as="geometry" />
        </mxCell>
        <mxCell id="6YndOh8D73mqKDZ_mxwR-95" value="&lt;span style=&quot;font-weight: normal; font-size: 7px;&quot;&gt;N&lt;/span&gt;" style="text;strokeColor=none;fillColor=none;html=1;fontSize=7;fontStyle=1;verticalAlign=middle;align=center;fontFamily=Helvetica;fontColor=default;" parent="1" vertex="1">
          <mxGeometry x="521.95" y="229.23000000000002" width="25" height="22.64" as="geometry" />
        </mxCell>
        <mxCell id="6YndOh8D73mqKDZ_mxwR-96" value="&lt;span style=&quot;font-weight: normal; font-size: 7px;&quot;&gt;1&lt;/span&gt;" style="text;strokeColor=none;fillColor=none;html=1;fontSize=7;fontStyle=1;verticalAlign=middle;align=center;fontFamily=Helvetica;fontColor=default;" parent="1" vertex="1">
          <mxGeometry x="564.2900000000001" y="293.31999999999994" width="25" height="22.64" as="geometry" />
        </mxCell>
        <mxCell id="6YndOh8D73mqKDZ_mxwR-101" value="Passenger" style="align=center;strokeColor=#6c8ebf;fillColor=#dae8fc;fontSize=10;labelBackgroundColor=none;shadow=0;fillStyle=auto;fontStyle=1;whiteSpace=wrap;html=1;" parent="1" vertex="1">
          <mxGeometry x="246.36000000000007" y="203.72" width="70" height="30" as="geometry" />
        </mxCell>
        <mxCell id="6YndOh8D73mqKDZ_mxwR-103" value="" style="edgeStyle=none;shape=link;rounded=0;orthogonalLoop=1;jettySize=auto;html=1;labelBackgroundColor=default;strokeColor=default;fontFamily=Helvetica;fontSize=7;fontColor=default;endArrow=none;endFill=0;" parent="1" source="6YndOh8D73mqKDZ_mxwR-102" target="6YndOh8D73mqKDZ_mxwR-61" edge="1">
          <mxGeometry relative="1" as="geometry">
            <mxPoint x="469.48" y="213.45999999999998" as="targetPoint" />
            <mxPoint x="418.06000000000006" y="213.36674822064055" as="sourcePoint" />
          </mxGeometry>
        </mxCell>
        <mxCell id="e-1JwnE7ZOLf_Y56nIoI-81" style="edgeStyle=none;shape=link;rounded=0;orthogonalLoop=1;jettySize=auto;html=1;labelBackgroundColor=default;strokeColor=default;fontFamily=Helvetica;fontSize=11;fontColor=default;endArrow=none;endFill=0;" parent="1" source="6YndOh8D73mqKDZ_mxwR-102" target="6YndOh8D73mqKDZ_mxwR-101" edge="1">
          <mxGeometry relative="1" as="geometry">
            <mxPoint x="356.1422587184658" y="214.71773496191958" as="sourcePoint" />
            <mxPoint x="316.36000000000007" y="214.7189399045419" as="targetPoint" />
          </mxGeometry>
        </mxCell>
        <mxCell id="6YndOh8D73mqKDZ_mxwR-102" value="Has" style="shape=rhombus;perimeter=rhombusPerimeter;whiteSpace=wrap;html=1;align=center;shadow=0;fontSize=7;fillColor=#fff2cc;strokeColor=#d6b656;" parent="1" vertex="1">
          <mxGeometry x="363.55000000000007" y="203.71508896797147" width="50" height="28.723309608540923" as="geometry" />
        </mxCell>
        <mxCell id="6YndOh8D73mqKDZ_mxwR-107" value="&lt;span style=&quot;font-weight: normal; font-size: 7px;&quot;&gt;1&lt;/span&gt;" style="text;strokeColor=none;fillColor=none;html=1;fontSize=7;fontStyle=1;verticalAlign=middle;align=center;fontFamily=Helvetica;fontColor=default;" parent="1" vertex="1">
          <mxGeometry x="780.96" y="239.00000000000003" width="25" height="22.64" as="geometry" />
        </mxCell>
        <mxCell id="6YndOh8D73mqKDZ_mxwR-108" value="&lt;span style=&quot;font-weight: normal; font-size: 7px;&quot;&gt;N&lt;/span&gt;" style="text;strokeColor=none;fillColor=none;html=1;fontSize=7;fontStyle=1;verticalAlign=middle;align=center;fontFamily=Helvetica;fontColor=default;" parent="1" vertex="1">
          <mxGeometry x="791.96" y="301.4" width="7.04" height="9.28" as="geometry" />
        </mxCell>
        <mxCell id="6YndOh8D73mqKDZ_mxwR-111" value="" style="edgeStyle=none;shape=connector;rounded=0;orthogonalLoop=1;jettySize=auto;html=1;labelBackgroundColor=default;strokeColor=default;fontFamily=Helvetica;fontSize=7;fontColor=default;endArrow=none;endFill=0;" parent="1" source="6YndOh8D73mqKDZ_mxwR-110" target="6YndOh8D73mqKDZ_mxwR-101" edge="1">
          <mxGeometry relative="1" as="geometry" />
        </mxCell>
        <mxCell id="6YndOh8D73mqKDZ_mxwR-110" value="Name" style="ellipse;whiteSpace=wrap;html=1;align=center;strokeColor=#000000;fillColor=#ffffff;fontSize=7;" parent="1" vertex="1">
          <mxGeometry x="196.36" y="168.31999999999994" width="50" height="30" as="geometry" />
        </mxCell>
        <mxCell id="6YndOh8D73mqKDZ_mxwR-114" value="" style="edgeStyle=none;shape=connector;rounded=0;orthogonalLoop=1;jettySize=auto;html=1;labelBackgroundColor=default;strokeColor=default;fontFamily=Helvetica;fontSize=7;fontColor=default;endArrow=none;endFill=0;entryX=1;entryY=0.5;entryDx=0;entryDy=0;" parent="1" source="6YndOh8D73mqKDZ_mxwR-113" target="6YndOh8D73mqKDZ_mxwR-15" edge="1">
          <mxGeometry relative="1" as="geometry" />
        </mxCell>
        <mxCell id="6YndOh8D73mqKDZ_mxwR-113" value="Route Price" style="ellipse;whiteSpace=wrap;html=1;align=center;strokeColor=#000000;fillColor=#ffffff;fontSize=7;" parent="1" vertex="1">
          <mxGeometry x="835.46" y="190.31000000000003" width="50" height="30" as="geometry" />
        </mxCell>
        <mxCell id="6YndOh8D73mqKDZ_mxwR-117" value="" style="edgeStyle=none;shape=connector;rounded=0;orthogonalLoop=1;jettySize=auto;html=1;labelBackgroundColor=default;strokeColor=default;fontFamily=Helvetica;fontSize=7;fontColor=default;endArrow=none;endFill=0;" parent="1" source="6YndOh8D73mqKDZ_mxwR-116" target="AWn3woIT9S4quaAHqm3O-36" edge="1">
          <mxGeometry relative="1" as="geometry" />
        </mxCell>
        <mxCell id="6YndOh8D73mqKDZ_mxwR-116" value="Weekday&lt;br&gt;Price Factor" style="ellipse;whiteSpace=wrap;html=1;align=center;strokeColor=#000000;fillColor=#ffffff;fontSize=7;" parent="1" vertex="1">
          <mxGeometry x="792.0000000000001" y="449.84999999999997" width="50" height="30" as="geometry" />
        </mxCell>
        <mxCell id="e-1JwnE7ZOLf_Y56nIoI-30" style="edgeStyle=none;shape=connector;rounded=0;orthogonalLoop=1;jettySize=auto;html=1;labelBackgroundColor=default;strokeColor=default;fontFamily=Helvetica;fontSize=7;fontColor=default;endArrow=none;endFill=0;" parent="1" source="e-1JwnE7ZOLf_Y56nIoI-29" target="e-1JwnE7ZOLf_Y56nIoI-22" edge="1">
          <mxGeometry relative="1" as="geometry">
            <mxPoint x="565" y="404" as="targetPoint" />
          </mxGeometry>
        </mxCell>
        <mxCell id="e-1JwnE7ZOLf_Y56nIoI-29" value="&lt;u style=&quot;font-size: 7px;&quot;&gt;Flight Number&lt;/u&gt;" style="ellipse;whiteSpace=wrap;html=1;align=center;strokeColor=#000000;fillColor=#ffffff;fontSize=7;" parent="1" vertex="1">
          <mxGeometry x="551.7900000000001" y="364.58000000000004" width="50" height="30" as="geometry" />
        </mxCell>
        <mxCell id="6YndOh8D73mqKDZ_mxwR-135" value="&lt;span style=&quot;font-weight: normal; font-size: 7px;&quot;&gt;N&lt;/span&gt;" style="text;strokeColor=none;fillColor=none;html=1;fontSize=7;fontStyle=1;verticalAlign=middle;align=center;fontFamily=Helvetica;fontColor=default;" parent="1" vertex="1">
          <mxGeometry x="447.53" y="198.32000000000002" width="25" height="22.64" as="geometry" />
        </mxCell>
        <mxCell id="e-1JwnE7ZOLf_Y56nIoI-35" style="edgeStyle=none;shape=connector;rounded=0;orthogonalLoop=1;jettySize=auto;html=1;labelBackgroundColor=default;strokeColor=default;fontFamily=Helvetica;fontSize=7;fontColor=default;endArrow=none;endFill=0;" parent="1" source="e-1JwnE7ZOLf_Y56nIoI-34" target="6YndOh8D73mqKDZ_mxwR-6" edge="1">
          <mxGeometry relative="1" as="geometry" />
        </mxCell>
        <mxCell id="e-1JwnE7ZOLf_Y56nIoI-34" value="&lt;u style=&quot;font-size: 7px;&quot;&gt;Code&lt;/u&gt;" style="ellipse;whiteSpace=wrap;html=1;align=center;strokeColor=#000000;fillColor=#ffffff;fontSize=7;" parent="1" vertex="1">
          <mxGeometry x="699.2400000000001" y="64.00000000000006" width="50" height="30" as="geometry" />
        </mxCell>
        <mxCell id="e-1JwnE7ZOLf_Y56nIoI-37" style="edgeStyle=none;shape=connector;rounded=0;orthogonalLoop=1;jettySize=auto;html=1;labelBackgroundColor=default;strokeColor=default;fontFamily=Helvetica;fontSize=7;fontColor=default;endArrow=none;endFill=0;" parent="1" source="e-1JwnE7ZOLf_Y56nIoI-36" target="6YndOh8D73mqKDZ_mxwR-101" edge="1">
          <mxGeometry relative="1" as="geometry" />
        </mxCell>
        <mxCell id="e-1JwnE7ZOLf_Y56nIoI-36" value="&lt;u style=&quot;font-size: 7px;&quot;&gt;Passport Number&lt;/u&gt;" style="ellipse;whiteSpace=wrap;html=1;align=center;strokeColor=#000000;fillColor=#ffffff;fontSize=7;" parent="1" vertex="1">
          <mxGeometry x="196.36000000000013" y="236.68000000000006" width="50" height="30" as="geometry" />
        </mxCell>
        <mxCell id="e-1JwnE7ZOLf_Y56nIoI-40" style="edgeStyle=none;shape=connector;rounded=0;orthogonalLoop=1;jettySize=auto;html=1;labelBackgroundColor=default;strokeColor=default;fontFamily=Helvetica;fontSize=7;fontColor=default;endArrow=none;endFill=0;" parent="1" source="e-1JwnE7ZOLf_Y56nIoI-38" target="6YndOh8D73mqKDZ_mxwR-61" edge="1">
          <mxGeometry relative="1" as="geometry" />
        </mxCell>
        <mxCell id="e-1JwnE7ZOLf_Y56nIoI-38" value="&lt;u style=&quot;font-size: 7px;&quot;&gt;R&lt;span style=&quot;white-space: pre; font-size: 7px;&quot;&gt;eservation&lt;br style=&quot;font-size: 7px;&quot;&gt;Number&lt;/span&gt;&lt;/u&gt;" style="ellipse;whiteSpace=wrap;html=1;align=center;strokeColor=#000000;fillColor=#ffffff;fontSize=7;" parent="1" vertex="1">
          <mxGeometry x="479.34000000000003" y="148.60000000000002" width="50" height="30" as="geometry" />
        </mxCell>
        <mxCell id="e-1JwnE7ZOLf_Y56nIoI-46" style="edgeStyle=none;shape=connector;rounded=0;orthogonalLoop=1;jettySize=auto;html=1;labelBackgroundColor=default;strokeColor=default;fontFamily=Helvetica;fontSize=7;fontColor=default;endArrow=none;endFill=0;" parent="1" source="e-1JwnE7ZOLf_Y56nIoI-45" target="6YndOh8D73mqKDZ_mxwR-66" edge="1">
          <mxGeometry relative="1" as="geometry" />
        </mxCell>
        <mxCell id="e-1JwnE7ZOLf_Y56nIoI-45" value="&lt;u style=&quot;font-size: 7px;&quot;&gt;ID&lt;/u&gt;" style="ellipse;whiteSpace=wrap;html=1;align=center;strokeColor=#000000;fillColor=#ffffff;fontSize=7;" parent="1" vertex="1">
          <mxGeometry x="835.46" y="292.0400000000001" width="50" height="30" as="geometry" />
        </mxCell>
        <mxCell id="6YndOh8D73mqKDZ_mxwR-179" value="" style="edgeStyle=none;shape=connector;rounded=0;orthogonalLoop=1;jettySize=auto;html=1;labelBackgroundColor=default;strokeColor=default;fontFamily=Helvetica;fontSize=7;fontColor=default;endArrow=none;endFill=0;" parent="1" source="6YndOh8D73mqKDZ_mxwR-176" edge="1">
          <mxGeometry relative="1" as="geometry" />
        </mxCell>
        <mxCell id="e-1JwnE7ZOLf_Y56nIoI-68" style="edgeStyle=none;shape=connector;rounded=0;orthogonalLoop=1;jettySize=auto;html=1;labelBackgroundColor=default;strokeColor=default;fontFamily=Helvetica;fontSize=11;fontColor=default;endArrow=none;endFill=0;" parent="1" source="6YndOh8D73mqKDZ_mxwR-176" target="6YndOh8D73mqKDZ_mxwR-189" edge="1">
          <mxGeometry relative="1" as="geometry" />
        </mxCell>
        <mxCell id="6YndOh8D73mqKDZ_mxwR-176" value="&lt;u&gt;Card Number&lt;/u&gt;" style="ellipse;whiteSpace=wrap;html=1;align=center;strokeColor=#000000;fillColor=#ffffff;fontSize=7;" parent="1" vertex="1">
          <mxGeometry x="414.54" y="500.81" width="50" height="30" as="geometry" />
        </mxCell>
        <mxCell id="e-1JwnE7ZOLf_Y56nIoI-67" style="edgeStyle=none;shape=connector;rounded=0;orthogonalLoop=1;jettySize=auto;html=1;labelBackgroundColor=default;strokeColor=default;fontFamily=Helvetica;fontSize=11;fontColor=default;endArrow=none;endFill=0;" parent="1" source="6YndOh8D73mqKDZ_mxwR-182" target="6YndOh8D73mqKDZ_mxwR-189" edge="1">
          <mxGeometry relative="1" as="geometry" />
        </mxCell>
        <mxCell id="6YndOh8D73mqKDZ_mxwR-182" value="Card Holder" style="ellipse;whiteSpace=wrap;html=1;align=center;strokeColor=#000000;fillColor=#ffffff;fontSize=7;" parent="1" vertex="1">
          <mxGeometry x="351.09" y="500.8100000000001" width="50" height="30" as="geometry" />
        </mxCell>
        <mxCell id="6YndOh8D73mqKDZ_mxwR-189" value="&lt;div&gt;Payment&lt;/div&gt;&lt;div&gt;Card&lt;/div&gt;" style="align=center;strokeColor=#6c8ebf;fillColor=#dae8fc;fontSize=10;labelBackgroundColor=none;shadow=0;fillStyle=auto;fontStyle=1;whiteSpace=wrap;html=1;" parent="1" vertex="1">
          <mxGeometry x="374.09000000000003" y="449.8500000000001" width="70" height="30" as="geometry" />
        </mxCell>
        <mxCell id="e-1JwnE7ZOLf_Y56nIoI-76" style="edgeStyle=none;shape=connector;rounded=0;orthogonalLoop=1;jettySize=auto;html=1;labelBackgroundColor=default;strokeColor=default;fontFamily=Helvetica;fontSize=11;fontColor=default;endArrow=none;endFill=0;" parent="1" source="6YndOh8D73mqKDZ_mxwR-190" target="AWn3woIT9S4quaAHqm3O-8" edge="1">
          <mxGeometry relative="1" as="geometry" />
        </mxCell>
        <mxCell id="6YndOh8D73mqKDZ_mxwR-190" value="E-mail" style="ellipse;whiteSpace=wrap;html=1;align=center;strokeColor=#000000;fillColor=#ffffff;fontSize=7;" parent="1" vertex="1">
          <mxGeometry x="401.0900000000001" y="111.73000000000013" width="50" height="30" as="geometry" />
        </mxCell>
        <mxCell id="e-1JwnE7ZOLf_Y56nIoI-77" style="edgeStyle=none;shape=connector;rounded=0;orthogonalLoop=1;jettySize=auto;html=1;labelBackgroundColor=default;strokeColor=default;fontFamily=Helvetica;fontSize=11;fontColor=default;endArrow=none;endFill=0;" parent="1" source="6YndOh8D73mqKDZ_mxwR-191" target="AWn3woIT9S4quaAHqm3O-8" edge="1">
          <mxGeometry relative="1" as="geometry" />
        </mxCell>
        <mxCell id="6YndOh8D73mqKDZ_mxwR-191" value="Phone Number" style="ellipse;whiteSpace=wrap;html=1;align=center;strokeColor=#000000;fillColor=#ffffff;fontSize=7;" parent="1" vertex="1">
          <mxGeometry x="332.09000000000003" y="111.73000000000017" width="50" height="30" as="geometry" />
        </mxCell>
        <mxCell id="6YndOh8D73mqKDZ_mxwR-196" value="" style="edgeStyle=none;shape=link;rounded=0;orthogonalLoop=1;jettySize=auto;html=1;labelBackgroundColor=default;strokeColor=default;fontFamily=Helvetica;fontSize=11;fontColor=default;endArrow=none;endFill=0;" parent="1" source="6YndOh8D73mqKDZ_mxwR-195" target="6YndOh8D73mqKDZ_mxwR-60" edge="1">
          <mxGeometry relative="1" as="geometry" />
        </mxCell>
        <mxCell id="6YndOh8D73mqKDZ_mxwR-197" value="" style="edgeStyle=none;shape=link;rounded=0;orthogonalLoop=1;jettySize=auto;html=1;labelBackgroundColor=default;strokeColor=default;fontFamily=Helvetica;fontSize=11;fontColor=default;endArrow=none;endFill=0;" parent="1" source="6YndOh8D73mqKDZ_mxwR-195" target="6YndOh8D73mqKDZ_mxwR-189" edge="1">
          <mxGeometry relative="1" as="geometry" />
        </mxCell>
        <mxCell id="6YndOh8D73mqKDZ_mxwR-195" value="Has" style="shape=rhombus;perimeter=rhombusPerimeter;whiteSpace=wrap;html=1;align=center;shadow=0;fontSize=7;fillColor=#fff2cc;strokeColor=#d6b656;" parent="1" vertex="1">
          <mxGeometry x="384.09000000000003" y="406.17" width="50" height="27.92" as="geometry" />
        </mxCell>
        <mxCell id="6YndOh8D73mqKDZ_mxwR-198" value="N" style="text;strokeColor=none;fillColor=none;html=1;fontSize=7;fontStyle=0;verticalAlign=middle;align=center;fontFamily=Helvetica;fontColor=default;" parent="1" vertex="1">
          <mxGeometry x="385.09" y="392.09000000000003" width="25" height="22.64" as="geometry" />
        </mxCell>
        <mxCell id="6YndOh8D73mqKDZ_mxwR-199" value="1" style="text;strokeColor=none;fillColor=none;html=1;fontSize=7;fontStyle=0;verticalAlign=middle;align=center;fontFamily=Helvetica;fontColor=default;" parent="1" vertex="1">
          <mxGeometry x="386.09000000000003" y="430.21000000000004" width="25" height="22.64" as="geometry" />
        </mxCell>
        <mxCell id="6YndOh8D73mqKDZ_mxwR-201" value="" style="edgeStyle=none;shape=connector;rounded=0;orthogonalLoop=1;jettySize=auto;html=1;labelBackgroundColor=default;strokeColor=default;fontFamily=Helvetica;fontSize=11;fontColor=default;endArrow=none;endFill=0;" parent="1" source="6YndOh8D73mqKDZ_mxwR-202" target="6YndOh8D73mqKDZ_mxwR-101" edge="1">
          <mxGeometry relative="1" as="geometry">
            <mxPoint x="281.77090339096964" y="259.04202622959787" as="sourcePoint" />
          </mxGeometry>
        </mxCell>
        <mxCell id="6YndOh8D73mqKDZ_mxwR-210" value="" style="edgeStyle=none;shape=connector;rounded=0;orthogonalLoop=1;jettySize=auto;html=1;labelBackgroundColor=default;strokeColor=default;fontFamily=Helvetica;fontSize=11;fontColor=default;endArrow=none;endFill=0;" parent="1" source="e-1JwnE7ZOLf_Y56nIoI-71" target="6YndOh8D73mqKDZ_mxwR-202" edge="1">
          <mxGeometry relative="1" as="geometry">
            <mxPoint x="293.2121226669657" y="320.57000000000016" as="targetPoint" />
          </mxGeometry>
        </mxCell>
        <mxCell id="e-1JwnE7ZOLf_Y56nIoI-71" value="Ticket Number" style="ellipse;whiteSpace=wrap;html=1;align=center;shadow=0;gradientColor=none;fontSize=7;" parent="1" vertex="1">
          <mxGeometry x="270.07454545454544" y="325.0669395017793" width="50" height="30" as="geometry" />
        </mxCell>
        <mxCell id="6YndOh8D73mqKDZ_mxwR-202" value="Has ticket" style="shape=rhombus;perimeter=rhombusPerimeter;whiteSpace=wrap;html=1;align=center;shadow=0;fontSize=7;fillColor=#fff2cc;strokeColor=#d6b656;" parent="1" vertex="1">
          <mxGeometry x="318.54" y="285.57" width="52.28" height="28.723309608540923" as="geometry" />
        </mxCell>
        <mxCell id="6YndOh8D73mqKDZ_mxwR-205" value="" style="edgeStyle=none;shape=link;rounded=0;orthogonalLoop=1;jettySize=auto;html=1;labelBackgroundColor=default;strokeColor=default;fontFamily=Helvetica;fontSize=11;fontColor=default;endArrow=none;endFill=0;" parent="1" source="6YndOh8D73mqKDZ_mxwR-202" target="6YndOh8D73mqKDZ_mxwR-60" edge="1">
          <mxGeometry relative="1" as="geometry">
            <mxPoint x="359.4937405762555" y="370.5901192724158" as="sourcePoint" />
          </mxGeometry>
        </mxCell>
        <mxCell id="6YndOh8D73mqKDZ_mxwR-217" value="M" style="text;strokeColor=none;fillColor=none;html=1;fontSize=7;fontStyle=0;verticalAlign=middle;align=center;fontFamily=Helvetica;fontColor=default;" parent="1" vertex="1">
          <mxGeometry x="389.53999999999996" y="342.89000000000004" width="25" height="22.64" as="geometry" />
        </mxCell>
        <mxCell id="Qf1WPh9bubAhgD8E0PNI-7" value="N" style="text;strokeColor=none;fillColor=none;html=1;fontSize=7;fontStyle=0;verticalAlign=middle;align=center;fontFamily=Helvetica;fontColor=default;" parent="1" vertex="1">
          <mxGeometry x="457.54999999999995" y="176.6800000000001" width="25" height="22.64" as="geometry" />
        </mxCell>
        <mxCell id="Qf1WPh9bubAhgD8E0PNI-14" value="N" style="text;strokeColor=none;fillColor=none;html=1;fontSize=7;fontStyle=0;verticalAlign=middle;align=center;fontFamily=Helvetica;fontColor=default;" parent="1" vertex="1">
          <mxGeometry x="297.53999999999996" y="231.23000000000002" width="25" height="22.64" as="geometry" />
        </mxCell>
        <mxCell id="Qf1WPh9bubAhgD8E0PNI-18" value="" style="edgeStyle=none;shape=link;rounded=0;orthogonalLoop=1;jettySize=auto;html=1;labelBackgroundColor=default;strokeColor=default;fontFamily=Helvetica;fontSize=7;fontColor=default;endArrow=none;endFill=0;" parent="1" source="e-1JwnE7ZOLf_Y56nIoI-24" target="e-1JwnE7ZOLf_Y56nIoI-22" edge="1">
          <mxGeometry relative="1" as="geometry">
            <mxPoint x="663.29" y="406.36" as="sourcePoint" />
            <mxPoint x="631.29" y="427.36" as="targetPoint" />
          </mxGeometry>
        </mxCell>
        <mxCell id="Zno4iptjPScqtW-oI-4n-1" value="M" style="text;strokeColor=none;fillColor=none;html=1;fontSize=7;fontStyle=0;verticalAlign=middle;align=center;fontFamily=Helvetica;fontColor=default;" parent="1" vertex="1">
          <mxGeometry x="311.31" y="198.32" width="25" height="22.64" as="geometry" />
        </mxCell>
        <mxCell id="Zno4iptjPScqtW-oI-4n-3" value="" style="shape=requiredInterface;html=1;verticalLabelPosition=bottom;shadow=0;fontSize=7;rotation=120;" parent="1" vertex="1">
          <mxGeometry x="455.5454545454545" y="290.63921708185046" width="5.454545454545455" height="10.444839857651244" as="geometry" />
        </mxCell>
        <mxCell id="AWn3woIT9S4quaAHqm3O-3" value="" style="rounded=0;orthogonalLoop=1;jettySize=auto;html=1;entryX=0.771;entryY=1.02;entryDx=0;entryDy=0;entryPerimeter=0;endArrow=none;endFill=0;" parent="1" source="AWn3woIT9S4quaAHqm3O-2" target="6YndOh8D73mqKDZ_mxwR-6" edge="1">
          <mxGeometry relative="1" as="geometry">
            <mxPoint x="789" y="155.4" as="targetPoint" />
          </mxGeometry>
        </mxCell>
        <mxCell id="AWn3woIT9S4quaAHqm3O-5" value="" style="edgeStyle=none;shape=link;rounded=0;orthogonalLoop=1;jettySize=auto;html=1;labelBackgroundColor=default;strokeColor=default;fontFamily=Helvetica;fontSize=11;fontColor=default;endArrow=none;endFill=0;entryX=0.769;entryY=-0.007;entryDx=0;entryDy=0;entryPerimeter=0;" parent="1" source="AWn3woIT9S4quaAHqm3O-2" target="6YndOh8D73mqKDZ_mxwR-15" edge="1">
          <mxGeometry relative="1" as="geometry" />
        </mxCell>
        <mxCell id="AWn3woIT9S4quaAHqm3O-2" value="From" style="shape=rhombus;perimeter=rhombusPerimeter;whiteSpace=wrap;html=1;align=center;shadow=0;fontSize=7;fillColor=#fff2cc;strokeColor=#d6b656;" parent="1" vertex="1">
          <mxGeometry x="789.47" y="161.59" width="27.49" height="28.72" as="geometry" />
        </mxCell>
        <mxCell id="AWn3woIT9S4quaAHqm3O-6" value="1" style="text;strokeColor=none;fillColor=none;html=1;fontSize=7;fontStyle=1;verticalAlign=middle;align=center;fontFamily=Helvetica;fontColor=default;" parent="1" vertex="1">
          <mxGeometry x="798.96" y="137.72" width="25" height="22.64" as="geometry" />
        </mxCell>
        <mxCell id="AWn3woIT9S4quaAHqm3O-7" value="M" style="text;strokeColor=none;fillColor=none;html=1;fontSize=7;fontStyle=0;verticalAlign=middle;align=center;fontFamily=Helvetica;fontColor=default;" parent="1" vertex="1">
          <mxGeometry x="809.04" y="198.44000000000003" width="7.96" height="8.64" as="geometry" />
        </mxCell>
        <mxCell id="AWn3woIT9S4quaAHqm3O-9" value="" style="edgeStyle=none;shape=link;rounded=0;orthogonalLoop=1;jettySize=auto;html=1;labelBackgroundColor=default;strokeColor=default;fontFamily=Helvetica;fontSize=11;fontColor=default;endArrow=none;endFill=0;" parent="1" source="AWn3woIT9S4quaAHqm3O-8" target="6YndOh8D73mqKDZ_mxwR-61" edge="1">
          <mxGeometry relative="1" as="geometry" />
        </mxCell>
        <mxCell id="AWn3woIT9S4quaAHqm3O-11" value="" style="edgeStyle=none;shape=connector;rounded=0;orthogonalLoop=1;jettySize=auto;html=1;labelBackgroundColor=default;strokeColor=default;fontFamily=Helvetica;fontSize=11;fontColor=default;endArrow=none;endFill=0;" parent="1" source="AWn3woIT9S4quaAHqm3O-8" target="6YndOh8D73mqKDZ_mxwR-101" edge="1">
          <mxGeometry relative="1" as="geometry" />
        </mxCell>
        <mxCell id="AWn3woIT9S4quaAHqm3O-8" value="&lt;div&gt;Is contact&lt;br&gt;&lt;/div&gt;" style="shape=rhombus;perimeter=rhombusPerimeter;whiteSpace=wrap;html=1;align=center;shadow=0;fontSize=7;fillColor=#fff2cc;strokeColor=#d6b656;" parent="1" vertex="1">
          <mxGeometry x="363.54999999999995" y="148.60000000000002" width="51.38" height="28.723309608540923" as="geometry" />
        </mxCell>
        <mxCell id="AWn3woIT9S4quaAHqm3O-14" value="1" style="text;strokeColor=none;fillColor=none;html=1;fontSize=7;fontStyle=0;verticalAlign=middle;align=center;fontFamily=Helvetica;fontColor=default;" parent="1" vertex="1">
          <mxGeometry x="299.61999999999995" y="181.08000000000004" width="25" height="22.64" as="geometry" />
        </mxCell>
        <mxCell id="AWn3woIT9S4quaAHqm3O-36" value="&lt;font style=&quot;font-size: 10px;&quot;&gt;Weekday&lt;/font&gt;" style="shape=ext;margin=3;double=1;whiteSpace=wrap;html=1;align=center;shadow=0;fontSize=10;fillColor=#dae8fc;strokeColor=#6c8ebf;fontStyle=1" parent="1" vertex="1">
          <mxGeometry x="749.48" y="410.08000000000004" width="69.76" height="30" as="geometry" />
        </mxCell>
        <mxCell id="AWo2ZEkejLqnsyvC_7B2-6" value="" style="edgeStyle=orthogonalEdgeStyle;rounded=0;orthogonalLoop=1;jettySize=auto;html=1;" parent="1" source="AWn3woIT9S4quaAHqm3O-38" target="AWn3woIT9S4quaAHqm3O-57" edge="1">
          <mxGeometry relative="1" as="geometry" />
        </mxCell>
        <mxCell id="AWn3woIT9S4quaAHqm3O-38" value="Year" style="align=center;strokeColor=#6c8ebf;fillColor=#dae8fc;fontSize=10;labelBackgroundColor=none;shadow=0;fillStyle=auto;fontStyle=1;whiteSpace=wrap;html=1;" parent="1" vertex="1">
          <mxGeometry x="899.01" y="409.28" width="70" height="30" as="geometry" />
        </mxCell>
        <mxCell id="AWn3woIT9S4quaAHqm3O-43" style="edgeStyle=none;shape=connector;rounded=0;orthogonalLoop=1;jettySize=auto;html=1;labelBackgroundColor=default;strokeColor=default;fontFamily=Helvetica;fontSize=11;fontColor=default;endArrow=none;endFill=0;" parent="1" source="AWn3woIT9S4quaAHqm3O-42" target="AWn3woIT9S4quaAHqm3O-38" edge="1">
          <mxGeometry relative="1" as="geometry" />
        </mxCell>
        <mxCell id="AWn3woIT9S4quaAHqm3O-42" value="Profit Factor" style="ellipse;whiteSpace=wrap;html=1;align=center;strokeColor=#000000;fillColor=#ffffff;fontSize=7;" parent="1" vertex="1">
          <mxGeometry x="941.9999999999999" y="449.85" width="50" height="30" as="geometry" />
        </mxCell>
        <mxCell id="AWn3woIT9S4quaAHqm3O-46" style="edgeStyle=none;shape=connector;rounded=0;orthogonalLoop=1;jettySize=auto;html=1;labelBackgroundColor=default;strokeColor=default;fontFamily=Helvetica;fontSize=11;fontColor=default;endArrow=none;endFill=0;" parent="1" source="AWn3woIT9S4quaAHqm3O-45" target="6YndOh8D73mqKDZ_mxwR-66" edge="1">
          <mxGeometry relative="1" as="geometry" />
        </mxCell>
        <mxCell id="AWn3woIT9S4quaAHqm3O-47" style="edgeStyle=none;shape=connector;rounded=0;orthogonalLoop=1;jettySize=auto;html=1;labelBackgroundColor=default;strokeColor=default;fontFamily=Helvetica;fontSize=11;fontColor=default;endArrow=none;endFill=0;" parent="1" source="AWn3woIT9S4quaAHqm3O-45" target="AWn3woIT9S4quaAHqm3O-36" edge="1">
          <mxGeometry relative="1" as="geometry" />
        </mxCell>
        <mxCell id="AWn3woIT9S4quaAHqm3O-45" value="For" style="shape=rhombus;perimeter=rhombusPerimeter;whiteSpace=wrap;html=1;align=center;shadow=0;fontSize=7;fillColor=#fff2cc;strokeColor=#d6b656;" parent="1" vertex="1">
          <mxGeometry x="758.92" y="365.9350889679715" width="50" height="28.723309608540923" as="geometry" />
        </mxCell>
        <mxCell id="AWn3woIT9S4quaAHqm3O-49" style="edgeStyle=none;shape=link;rounded=0;orthogonalLoop=1;jettySize=auto;html=1;labelBackgroundColor=default;strokeColor=default;fontFamily=Helvetica;fontSize=11;fontColor=default;endArrow=none;endFill=0;" parent="1" source="AWn3woIT9S4quaAHqm3O-57" target="AWn3woIT9S4quaAHqm3O-36" edge="1">
          <mxGeometry relative="1" as="geometry">
            <mxPoint x="836.2589658784411" y="424.09572265810436" as="sourcePoint" />
          </mxGeometry>
        </mxCell>
        <mxCell id="AWn3woIT9S4quaAHqm3O-50" style="edgeStyle=none;shape=connector;rounded=0;orthogonalLoop=1;jettySize=auto;html=1;labelBackgroundColor=default;strokeColor=default;fontFamily=Helvetica;fontSize=11;fontColor=default;endArrow=none;endFill=0;" parent="1" source="AWn3woIT9S4quaAHqm3O-57" target="AWn3woIT9S4quaAHqm3O-38" edge="1">
          <mxGeometry relative="1" as="geometry">
            <mxPoint x="885.085100501916" y="423.85211085935305" as="sourcePoint" />
          </mxGeometry>
        </mxCell>
        <mxCell id="AWn3woIT9S4quaAHqm3O-51" value="N" style="text;strokeColor=none;fillColor=none;html=1;fontSize=7;fontStyle=0;verticalAlign=middle;align=center;fontFamily=Helvetica;fontColor=default;" parent="1" vertex="1">
          <mxGeometry x="779.96" y="341.94" width="25" height="22.64" as="geometry" />
        </mxCell>
        <mxCell id="AWn3woIT9S4quaAHqm3O-52" value="1" style="text;strokeColor=none;fillColor=none;html=1;fontSize=7;fontStyle=0;verticalAlign=middle;align=center;fontFamily=Helvetica;fontColor=default;" parent="1" vertex="1">
          <mxGeometry x="781.96" y="390.12" width="25" height="22.64" as="geometry" />
        </mxCell>
        <mxCell id="AWn3woIT9S4quaAHqm3O-53" value="N" style="text;strokeColor=none;fillColor=none;html=1;fontSize=7;fontStyle=0;verticalAlign=middle;align=center;fontFamily=Helvetica;fontColor=default;" parent="1" vertex="1">
          <mxGeometry x="821.96" y="411.73" width="8.04" height="7.28" as="geometry" />
        </mxCell>
        <mxCell id="AWn3woIT9S4quaAHqm3O-54" value="1" style="text;strokeColor=none;fillColor=none;html=1;fontSize=7;fontStyle=0;verticalAlign=middle;align=center;fontFamily=Helvetica;fontColor=default;" parent="1" vertex="1">
          <mxGeometry x="885.97" y="412.76000000000005" width="8.04" height="7.28" as="geometry" />
        </mxCell>
        <mxCell id="AWn3woIT9S4quaAHqm3O-57" value="In" style="shape=rhombus;double=1;perimeter=rhombusPerimeter;whiteSpace=wrap;html=1;align=center;strokeColor=#d6b656;fillColor=#fff2cc;fontSize=7;" parent="1" vertex="1">
          <mxGeometry x="835.46" y="410.1700000000001" width="50" height="28.723309608540923" as="geometry" />
        </mxCell>
        <mxCell id="AWo2ZEkejLqnsyvC_7B2-2" style="rounded=0;orthogonalLoop=1;jettySize=auto;html=1;endArrow=none;endFill=0;" parent="1" source="AWo2ZEkejLqnsyvC_7B2-1" target="AWn3woIT9S4quaAHqm3O-38" edge="1">
          <mxGeometry relative="1" as="geometry" />
        </mxCell>
        <mxCell id="AWo2ZEkejLqnsyvC_7B2-3" style="rounded=0;orthogonalLoop=1;jettySize=auto;html=1;endArrow=none;endFill=0;" parent="1" source="AWo2ZEkejLqnsyvC_7B2-1" target="6YndOh8D73mqKDZ_mxwR-15" edge="1">
          <mxGeometry relative="1" as="geometry" />
        </mxCell>
        <mxCell id="AWo2ZEkejLqnsyvC_7B2-1" value="&lt;div&gt;Affects&lt;/div&gt;&lt;div&gt;price&lt;/div&gt;" style="shape=rhombus;perimeter=rhombusPerimeter;whiteSpace=wrap;html=1;align=center;shadow=0;fontSize=7;fillColor=#fff2cc;strokeColor=#d6b656;" parent="1" vertex="1">
          <mxGeometry x="909.01" y="284.5650889679715" width="50" height="28.723309608540923" as="geometry" />
        </mxCell>
        <mxCell id="AWo2ZEkejLqnsyvC_7B2-4" value="N" style="text;strokeColor=none;fillColor=none;html=1;fontSize=7;fontStyle=0;verticalAlign=middle;align=center;fontFamily=Helvetica;fontColor=default;" parent="1" vertex="1">
          <mxGeometry x="816.04" y="226.04000000000002" width="25" height="22.64" as="geometry" />
        </mxCell>
        <mxCell id="AWo2ZEkejLqnsyvC_7B2-5" value="&lt;span style=&quot;font-weight: normal; font-size: 7px;&quot;&gt;1&lt;/span&gt;" style="text;strokeColor=none;fillColor=none;html=1;fontSize=7;fontStyle=1;verticalAlign=middle;align=center;fontFamily=Helvetica;fontColor=default;" parent="1" vertex="1">
          <mxGeometry x="929.01" y="388.64" width="25" height="22.64" as="geometry" />
        </mxCell>
        <mxCell id="AWo2ZEkejLqnsyvC_7B2-9" style="rounded=0;orthogonalLoop=1;jettySize=auto;html=1;endArrow=none;endFill=0;" parent="1" source="AWo2ZEkejLqnsyvC_7B2-7" target="6YndOh8D73mqKDZ_mxwR-60" edge="1">
          <mxGeometry relative="1" as="geometry" />
        </mxCell>
        <mxCell id="AWo2ZEkejLqnsyvC_7B2-7" value="Price" style="ellipse;whiteSpace=wrap;html=1;align=center;strokeColor=#000000;fillColor=#ffffff;fontSize=7;" parent="1" vertex="1">
          <mxGeometry x="461" y="365.9400000000001" width="50" height="30" as="geometry" />
        </mxCell>
        <mxCell id="90X4HFMlRFY5UPveN02o-1" value="&lt;span style=&quot;border-bottom: 1px dotted&quot;&gt;Weekday&lt;/span&gt;" style="ellipse;whiteSpace=wrap;html=1;align=center;strokeColor=#000000;fillColor=#ffffff;fontSize=7;fontColor=#000000;" parent="1" vertex="1">
          <mxGeometry x="728" y="449.85" width="50" height="30" as="geometry" />
        </mxCell>
      </root>
    </mxGraphModel>
  </diagram>
  <diagram id="84zUwEt8LRDDHHk4Rw6f" name="Relational Model">
    <mxGraphModel dx="1195" dy="657" grid="1" gridSize="10" guides="1" tooltips="1" connect="1" arrows="1" fold="1" page="1" pageScale="1" pageWidth="1169" pageHeight="827" math="0" shadow="0">
      <root>
        <mxCell id="ga0Zw6LBFhbuao-3WzkD-0" />
        <mxCell id="ga0Zw6LBFhbuao-3WzkD-1" parent="ga0Zw6LBFhbuao-3WzkD-0" />
        <UserObject label="%date{ddd mmm dd yyyy HH:MM:ss}%" placeholders="1" id="Ka_tqsI0y06mJdhhlla0-0">
          <mxCell style="text;html=1;align=center;verticalAlign=middle;whiteSpace=wrap;overflow=hidden;fontColor=#FCFCFC;movable=0;resizable=0;rotatable=0;deletable=0;editable=0;connectable=0;" parent="ga0Zw6LBFhbuao-3WzkD-1" vertex="1">
            <mxGeometry x="1000" y="800" width="160" height="20" as="geometry" />
          </mxCell>
        </UserObject>
        <mxCell id="Ka_tqsI0y06mJdhhlla0-1" value="" style="shape=filledEdge;rounded=0;fixDash=1;endArrow=none;strokeWidth=10;fillColor=#ffffff;edgeStyle=orthogonalEdgeStyle;fontColor=#FCFCFC;" parent="ga0Zw6LBFhbuao-3WzkD-1" edge="1">
          <mxGeometry width="60" height="40" relative="1" as="geometry">
            <mxPoint x="10" y="790" as="sourcePoint" />
            <mxPoint x="40" y="820" as="targetPoint" />
            <Array as="points">
              <mxPoint x="10" y="820" />
            </Array>
          </mxGeometry>
        </mxCell>
        <mxCell id="Ka_tqsI0y06mJdhhlla0-2" value="" style="shape=filledEdge;rounded=0;fixDash=1;endArrow=none;strokeWidth=10;fillColor=#ffffff;edgeStyle=orthogonalEdgeStyle;fontColor=#FCFCFC;" parent="ga0Zw6LBFhbuao-3WzkD-1" edge="1">
          <mxGeometry width="60" height="40" relative="1" as="geometry">
            <mxPoint x="1117" y="59" as="sourcePoint" />
            <mxPoint x="1147" y="89" as="targetPoint" />
            <Array as="points">
              <mxPoint x="1147" y="59" />
            </Array>
          </mxGeometry>
        </mxCell>
        <mxCell id="Ka_tqsI0y06mJdhhlla0-3" value="" style="shape=filledEdge;rounded=0;fixDash=1;endArrow=none;strokeWidth=10;fillColor=#ffffff;edgeStyle=orthogonalEdgeStyle;fontColor=#FCFCFC;" parent="ga0Zw6LBFhbuao-3WzkD-1" edge="1">
          <mxGeometry width="60" height="40" relative="1" as="geometry">
            <mxPoint x="1129.9899999999998" y="820" as="sourcePoint" />
            <mxPoint x="1159.9899999999998" y="790" as="targetPoint" />
            <Array as="points">
              <mxPoint x="1159.99" y="820" />
            </Array>
          </mxGeometry>
        </mxCell>
        <mxCell id="Ka_tqsI0y06mJdhhlla0-4" value="&lt;table style=&quot;width: 100% ; height: 100% ; border-collapse: collapse&quot; width=&quot;100%&quot; cellpadding=&quot;4&quot; border=&quot;1&quot;&gt;&lt;tbody&gt;&lt;tr&gt;&lt;th&gt;Assignment #:&lt;/th&gt;&lt;td&gt;4b&lt;/td&gt;&lt;/tr&gt;&lt;tr&gt;&lt;td&gt;Description:&lt;/td&gt;&lt;td&gt;Relational Model&lt;/td&gt;&lt;/tr&gt;&lt;tr&gt;&lt;td&gt;Students:&lt;/td&gt;&lt;td&gt;Philip Svensson&lt;br style=&quot;border-color: var(--border-color);&quot;&gt;Mohammed Al-Hashimi&lt;br&gt;&lt;/td&gt;&lt;/tr&gt;&lt;tr&gt;&lt;td&gt;Repository URL:&lt;/td&gt;&lt;td&gt;&lt;a href=&quot;https://gitlab.liu.se/alial32/db&quot;&gt;https://gitlab.liu.se/phisv708/db&lt;/a&gt;&lt;/td&gt;&lt;/tr&gt;&lt;/tbody&gt;&lt;/table&gt;" style="text;html=1;strokeColor=none;fillColor=none;overflow=fill;fontColor=#000000;" parent="ga0Zw6LBFhbuao-3WzkD-1" vertex="1">
          <mxGeometry x="10" y="10" width="280" height="110" as="geometry" />
        </mxCell>
        <mxCell id="tErhHAeKlasX0cMtOekA-3" style="edgeStyle=orthogonalEdgeStyle;rounded=0;orthogonalLoop=1;jettySize=auto;html=1;" parent="ga0Zw6LBFhbuao-3WzkD-1" source="IGMXOhCDPmq3_l0k84RG-1" target="MrUzFp80nVnipoG-I0D1-14" edge="1">
          <mxGeometry relative="1" as="geometry">
            <mxPoint x="527" y="359" as="sourcePoint" />
            <Array as="points">
              <mxPoint x="457" y="299" />
              <mxPoint x="547" y="299" />
              <mxPoint x="547" y="230" />
              <mxPoint x="387" y="230" />
            </Array>
          </mxGeometry>
        </mxCell>
        <mxCell id="IGMXOhCDPmq3_l0k84RG-1" value="&lt;table style=&quot;width: 100% ; height: 100% ; border-collapse: collapse&quot; width=&quot;100%&quot; border=&quot;1&quot;&gt;&lt;tbody&gt;&lt;tr&gt;&lt;td&gt;&lt;b&gt;Flight&lt;/b&gt;&lt;/td&gt;&lt;td&gt;&lt;br&gt;&lt;/td&gt;&lt;td&gt;&lt;br&gt;&lt;/td&gt;&lt;/tr&gt;&lt;tr&gt;&lt;td style=&quot;text-align: center&quot;&gt;&lt;u&gt;FlightNumber&lt;/u&gt;&lt;/td&gt;&lt;td&gt;WeeklyFlight&lt;/td&gt;&lt;td style=&quot;text-align: center&quot;&gt;Week&lt;/td&gt;&lt;/tr&gt;&lt;/tbody&gt;&lt;/table&gt;" style="text;html=1;overflow=fill;recursiveResize=1;autosize=1;labelBackgroundColor=none;labelBorderColor=none;fillColor=default;" parent="ga0Zw6LBFhbuao-3WzkD-1" vertex="1">
          <mxGeometry x="337" y="239" width="200" height="50" as="geometry" />
        </mxCell>
        <mxCell id="nb5WwWMjGwOC8N9jQs91-0" value="" style="edgeStyle=orthogonalEdgeStyle;shape=connector;rounded=0;orthogonalLoop=1;jettySize=auto;html=1;labelBackgroundColor=default;strokeColor=default;fontFamily=Helvetica;fontSize=11;fontColor=default;endArrow=classic;endFill=1;" parent="ga0Zw6LBFhbuao-3WzkD-1" source="IGMXOhCDPmq3_l0k84RG-2" target="Cr721I1RWYTZgW6uVBve-0" edge="1">
          <mxGeometry relative="1" as="geometry">
            <Array as="points">
              <mxPoint x="552" y="130" />
              <mxPoint x="367" y="130" />
            </Array>
          </mxGeometry>
        </mxCell>
        <mxCell id="nb5WwWMjGwOC8N9jQs91-2" value="" style="edgeStyle=orthogonalEdgeStyle;shape=connector;rounded=0;orthogonalLoop=1;jettySize=auto;html=1;labelBackgroundColor=default;strokeColor=default;fontFamily=Helvetica;fontSize=11;fontColor=default;endArrow=classic;endFill=1;" parent="ga0Zw6LBFhbuao-3WzkD-1" source="IGMXOhCDPmq3_l0k84RG-2" target="Cr721I1RWYTZgW6uVBve-0" edge="1">
          <mxGeometry relative="1" as="geometry">
            <Array as="points">
              <mxPoint x="580" y="140" />
              <mxPoint x="357" y="140" />
            </Array>
          </mxGeometry>
        </mxCell>
        <mxCell id="IGMXOhCDPmq3_l0k84RG-2" value="&lt;table border=&quot;1&quot; width=&quot;100%&quot; style=&quot;width: 100% ; height: 100% ; border-collapse: collapse&quot;&gt;&lt;tbody&gt;&lt;tr&gt;&lt;td&gt;&lt;b&gt;Route&lt;/b&gt;&lt;/td&gt;&lt;td&gt;&lt;br&gt;&lt;/td&gt;&lt;td&gt;&lt;br&gt;&lt;/td&gt;&lt;td&gt;&lt;br&gt;&lt;/td&gt;&lt;td&gt;&lt;br&gt;&lt;/td&gt;&lt;/tr&gt;&lt;tr&gt;&lt;td style=&quot;text-align: center&quot;&gt;&lt;u&gt;ID&lt;/u&gt;&lt;/td&gt;&lt;td style=&quot;text-align: center&quot;&gt;To&lt;/td&gt;&lt;td style=&quot;text-align: center&quot;&gt;From&lt;/td&gt;&lt;td&gt;Year&lt;/td&gt;&lt;td style=&quot;text-align: center&quot;&gt;RoutePrice&lt;/td&gt;&lt;/tr&gt;&lt;/tbody&gt;&lt;/table&gt;" style="text;html=1;overflow=fill;recursiveResize=1;autosize=1;labelBackgroundColor=none;labelBorderColor=none;shadow=0;glass=0;rounded=0;fillColor=default;" parent="ga0Zw6LBFhbuao-3WzkD-1" vertex="1">
          <mxGeometry x="500" y="70" width="200" height="50" as="geometry" />
        </mxCell>
        <mxCell id="Cr721I1RWYTZgW6uVBve-0" value="&lt;table style=&quot;width: 100% ; height: 100% ; border-collapse: collapse&quot; width=&quot;100%&quot; border=&quot;1&quot;&gt;&lt;tbody&gt;&lt;tr&gt;&lt;td&gt;&lt;b&gt;Airport&lt;/b&gt;&lt;/td&gt;&lt;td&gt;&lt;br&gt;&lt;/td&gt;&lt;td&gt;&lt;br&gt;&lt;/td&gt;&lt;/tr&gt;&lt;tr&gt;&lt;td style=&quot;text-align: center&quot;&gt;&lt;u&gt;Code&lt;/u&gt;&lt;/td&gt;&lt;td style=&quot;text-align: center&quot;&gt;Name&lt;/td&gt;&lt;td style=&quot;text-align: center&quot;&gt;Country&lt;/td&gt;&lt;/tr&gt;&lt;/tbody&gt;&lt;/table&gt;" style="text;html=1;overflow=fill;recursiveResize=1;autosize=1;labelBackgroundColor=none;labelBorderColor=none;fillColor=default;" parent="ga0Zw6LBFhbuao-3WzkD-1" vertex="1">
          <mxGeometry x="337" y="70" width="150" height="50" as="geometry" />
        </mxCell>
        <mxCell id="QaGf7zKQHufaB7Pstobk-0" value="" style="edgeStyle=orthogonalEdgeStyle;shape=connector;rounded=0;orthogonalLoop=1;jettySize=auto;html=1;labelBackgroundColor=default;strokeColor=default;fontFamily=Helvetica;fontSize=11;fontColor=default;endArrow=classic;endFill=1;" parent="ga0Zw6LBFhbuao-3WzkD-1" source="MrUzFp80nVnipoG-I0D1-14" target="IGMXOhCDPmq3_l0k84RG-2" edge="1">
          <mxGeometry relative="1" as="geometry">
            <Array as="points">
              <mxPoint x="457" y="220" />
              <mxPoint x="647" y="220" />
              <mxPoint x="647" y="150" />
              <mxPoint x="520" y="150" />
            </Array>
          </mxGeometry>
        </mxCell>
        <mxCell id="MrUzFp80nVnipoG-I0D1-14" value="&lt;table style=&quot;width: 100% ; height: 100% ; border-collapse: collapse&quot; width=&quot;100%&quot; border=&quot;1&quot;&gt;&lt;tbody&gt;&lt;tr&gt;&lt;td&gt;&lt;b&gt;WeeklySchedule&lt;/b&gt;&lt;/td&gt;&lt;td&gt;&lt;br&gt;&lt;/td&gt;&lt;td&gt;&lt;br&gt;&lt;/td&gt;&lt;td&gt;&lt;br&gt;&lt;/td&gt;&lt;td&gt;&lt;br&gt;&lt;/td&gt;&lt;/tr&gt;&lt;tr&gt;&lt;td style=&quot;text-align: center&quot;&gt;&lt;u&gt;ID&lt;/u&gt;&lt;/td&gt;&lt;td style=&quot;text-align: center&quot;&gt;Route&lt;/td&gt;&lt;td style=&quot;text-align: center&quot;&gt;TimeOfDeparture&lt;/td&gt;&lt;td style=&quot;text-align: center&quot;&gt;Weekday&lt;/td&gt;&lt;td&gt;Year&lt;/td&gt;&lt;/tr&gt;&lt;/tbody&gt;&lt;/table&gt;" style="text;html=1;overflow=fill;recursiveResize=1;autosize=1;labelBackgroundColor=none;labelBorderColor=none;shadow=0;glass=0;rounded=0;fillColor=default;" parent="ga0Zw6LBFhbuao-3WzkD-1" vertex="1">
          <mxGeometry x="337" y="160" width="330" height="50" as="geometry" />
        </mxCell>
        <mxCell id="mlGPHATPlwO_0Xu7v43B-0" value="" style="edgeStyle=orthogonalEdgeStyle;shape=connector;rounded=0;orthogonalLoop=1;jettySize=auto;html=1;labelBackgroundColor=default;strokeColor=default;fontFamily=Helvetica;fontSize=11;fontColor=default;endArrow=classic;endFill=1;" parent="ga0Zw6LBFhbuao-3WzkD-1" source="MrUzFp80nVnipoG-I0D1-17" target="IGMXOhCDPmq3_l0k84RG-1" edge="1">
          <mxGeometry relative="1" as="geometry">
            <mxPoint x="582" y="529" as="sourcePoint" />
            <Array as="points">
              <mxPoint x="500" y="460" />
              <mxPoint x="750" y="460" />
              <mxPoint x="750" y="309" />
              <mxPoint x="377" y="309" />
            </Array>
            <mxPoint x="367" y="291" as="targetPoint" />
          </mxGeometry>
        </mxCell>
        <mxCell id="mlGPHATPlwO_0Xu7v43B-1" value="" style="edgeStyle=orthogonalEdgeStyle;shape=connector;rounded=0;orthogonalLoop=1;jettySize=auto;html=1;labelBackgroundColor=default;strokeColor=default;fontFamily=Helvetica;fontSize=11;fontColor=default;endArrow=classic;endFill=1;" parent="ga0Zw6LBFhbuao-3WzkD-1" source="MrUzFp80nVnipoG-I0D1-16" target="MrUzFp80nVnipoG-I0D1-17" edge="1">
          <mxGeometry relative="1" as="geometry">
            <mxPoint x="487" y="667.97" as="sourcePoint" />
            <Array as="points">
              <mxPoint x="390" y="540" />
              <mxPoint x="330" y="540" />
              <mxPoint x="330" y="470" />
              <mxPoint x="407" y="470" />
            </Array>
          </mxGeometry>
        </mxCell>
        <mxCell id="CccrDQBI3Yc_2hV9NNsB-1" style="edgeStyle=orthogonalEdgeStyle;rounded=0;orthogonalLoop=1;jettySize=auto;html=1;" parent="ga0Zw6LBFhbuao-3WzkD-1" source="MrUzFp80nVnipoG-I0D1-16" target="tErhHAeKlasX0cMtOekA-2" edge="1">
          <mxGeometry relative="1" as="geometry">
            <Array as="points">
              <mxPoint x="500" y="540" />
              <mxPoint x="640" y="540" />
            </Array>
          </mxGeometry>
        </mxCell>
        <mxCell id="MrUzFp80nVnipoG-I0D1-16" value="&lt;table style=&quot;width: 100% ; height: 100% ; border-collapse: collapse&quot; width=&quot;100%&quot; border=&quot;1&quot;&gt;&lt;tbody&gt;&lt;tr&gt;&lt;td&gt;&lt;b&gt;Booking&lt;/b&gt;&lt;/td&gt;&lt;td&gt;&lt;br&gt;&lt;/td&gt;&lt;td&gt;&lt;br&gt;&lt;/td&gt;&lt;/tr&gt;&lt;tr&gt;&lt;td style=&quot;text-align: center&quot;&gt;&lt;u&gt;ReservationNumber&lt;/u&gt;&lt;/td&gt;&lt;td&gt;CardNumber&lt;br&gt;&lt;/td&gt;&lt;td&gt;Price&lt;br&gt;&lt;/td&gt;&lt;/tr&gt;&lt;/tbody&gt;&lt;/table&gt;" style="text;html=1;overflow=fill;recursiveResize=1;autosize=1;labelBackgroundColor=none;labelBorderColor=none;shadow=0;glass=0;rounded=0;fillColor=default;" parent="ga0Zw6LBFhbuao-3WzkD-1" vertex="1">
          <mxGeometry x="337" y="480" width="240" height="50" as="geometry" />
        </mxCell>
        <mxCell id="MrUzFp80nVnipoG-I0D1-17" value="&lt;table border=&quot;1&quot; width=&quot;100%&quot; style=&quot;width: 100% ; height: 100% ; border-collapse: collapse&quot;&gt;&lt;tbody&gt;&lt;tr&gt;&lt;td&gt;&lt;b&gt;Reservation&lt;/b&gt;&lt;/td&gt;&lt;td&gt;&lt;br&gt;&lt;/td&gt;&lt;/tr&gt;&lt;tr&gt;&lt;td style=&quot;text-align: center&quot;&gt;&lt;u&gt;ReservationNumber&lt;/u&gt;&lt;/td&gt;&lt;td style=&quot;text-align: center&quot;&gt;FlightNumber&lt;br&gt;&lt;/td&gt;&lt;/tr&gt;&lt;/tbody&gt;&lt;/table&gt;" style="text;html=1;overflow=fill;recursiveResize=1;autosize=1;labelBackgroundColor=none;labelBorderColor=none;shadow=0;glass=0;rounded=0;fillColor=default;" parent="ga0Zw6LBFhbuao-3WzkD-1" vertex="1">
          <mxGeometry x="337" y="400" width="210" height="50" as="geometry" />
        </mxCell>
        <mxCell id="zJ3YTSKty_Wo3AmSRBxu-0" style="edgeStyle=orthogonalEdgeStyle;rounded=0;orthogonalLoop=1;jettySize=auto;html=1;" parent="ga0Zw6LBFhbuao-3WzkD-1" source="tErhHAeKlasX0cMtOekA-0" target="uOxJAcVdQEDiNYKlrigL-0" edge="1">
          <mxGeometry relative="1" as="geometry">
            <mxPoint x="337" y="369.00448275862084" as="sourcePoint" />
            <Array as="points">
              <mxPoint x="370" y="380" />
              <mxPoint x="300" y="380" />
              <mxPoint x="300" y="710" />
              <mxPoint x="500" y="710" />
            </Array>
          </mxGeometry>
        </mxCell>
        <mxCell id="tErhHAeKlasX0cMtOekA-0" value="&lt;table border=&quot;1&quot; width=&quot;100%&quot; style=&quot;width: 100% ; height: 100% ; border-collapse: collapse&quot;&gt;&lt;tbody&gt;&lt;tr&gt;&lt;td&gt;&lt;b&gt;Passenger&lt;/b&gt;&lt;/td&gt;&lt;td&gt;&lt;br&gt;&lt;/td&gt;&lt;/tr&gt;&lt;tr&gt;&lt;td style=&quot;text-align: center&quot;&gt;&lt;u&gt;PassportNumber&lt;/u&gt;&lt;/td&gt;&lt;td&gt;Name&lt;/td&gt;&lt;/tr&gt;&lt;/tbody&gt;&lt;/table&gt;" style="text;html=1;overflow=fill;recursiveResize=1;autosize=1;labelBackgroundColor=none;labelBorderColor=none;shadow=0;glass=0;rounded=0;fillColor=default;" parent="ga0Zw6LBFhbuao-3WzkD-1" vertex="1">
          <mxGeometry x="337" y="319" width="150" height="50" as="geometry" />
        </mxCell>
        <mxCell id="bzC7DCors8ZvtsW0bNLz-0" value="" style="edgeStyle=orthogonalEdgeStyle;shape=connector;rounded=0;orthogonalLoop=1;jettySize=auto;html=1;labelBackgroundColor=default;strokeColor=default;fontFamily=Helvetica;fontSize=11;fontColor=default;endArrow=classic;endFill=1;" parent="ga0Zw6LBFhbuao-3WzkD-1" source="tErhHAeKlasX0cMtOekA-1" target="MrUzFp80nVnipoG-I0D1-16" edge="1">
          <mxGeometry relative="1" as="geometry">
            <Array as="points">
              <mxPoint x="400" y="620" />
              <mxPoint x="330" y="620" />
              <mxPoint x="330" y="550" />
              <mxPoint x="410" y="550" />
            </Array>
          </mxGeometry>
        </mxCell>
        <mxCell id="bzC7DCors8ZvtsW0bNLz-1" value="" style="edgeStyle=orthogonalEdgeStyle;shape=connector;rounded=0;orthogonalLoop=1;jettySize=auto;html=1;labelBackgroundColor=default;strokeColor=default;fontFamily=Helvetica;fontSize=11;fontColor=default;endArrow=classic;endFill=1;" parent="ga0Zw6LBFhbuao-3WzkD-1" source="tErhHAeKlasX0cMtOekA-1" target="tErhHAeKlasX0cMtOekA-0" edge="1">
          <mxGeometry relative="1" as="geometry">
            <Array as="points">
              <mxPoint x="510" y="630" />
              <mxPoint x="310" y="630" />
              <mxPoint x="310" y="390" />
              <mxPoint x="390" y="390" />
            </Array>
            <mxPoint x="374.5" y="377.9699999999999" as="targetPoint" />
          </mxGeometry>
        </mxCell>
        <mxCell id="tErhHAeKlasX0cMtOekA-1" value="&lt;table style=&quot;width: 100% ; height: 100% ; border-collapse: collapse&quot; width=&quot;100%&quot; border=&quot;1&quot;&gt;&lt;tbody&gt;&lt;tr&gt;&lt;td&gt;&lt;b&gt;Has_Ticket&lt;/b&gt;&lt;/td&gt;&lt;td&gt;&lt;br&gt;&lt;/td&gt;&lt;td&gt;&lt;br&gt;&lt;/td&gt;&lt;/tr&gt;&lt;tr&gt;&lt;td style=&quot;text-align: center&quot;&gt;&lt;u&gt;ReservationNumber&lt;/u&gt;&lt;/td&gt;&lt;td&gt;&lt;u&gt;PassportNumber&lt;/u&gt;&lt;/td&gt;&lt;td&gt;TicketNumber&lt;/td&gt;&lt;/tr&gt;&lt;/tbody&gt;&lt;/table&gt;" style="text;html=1;overflow=fill;recursiveResize=1;autosize=1;labelBackgroundColor=none;labelBorderColor=none;shadow=0;glass=0;rounded=0;fillColor=default;" parent="ga0Zw6LBFhbuao-3WzkD-1" vertex="1">
          <mxGeometry x="337" y="560" width="300" height="50" as="geometry" />
        </mxCell>
        <mxCell id="tErhHAeKlasX0cMtOekA-2" value="&lt;table style=&quot;width: 100% ; height: 100% ; border-collapse: collapse&quot; width=&quot;100%&quot; border=&quot;1&quot;&gt;&lt;tbody&gt;&lt;tr&gt;&lt;td&gt;&lt;b&gt;Payment Card&lt;br&gt;&lt;/b&gt;&lt;/td&gt;&lt;td&gt;&lt;br&gt;&lt;/td&gt;&lt;/tr&gt;&lt;tr&gt;&lt;td style=&quot;text-align: center&quot;&gt;&lt;u&gt;CardNumber&lt;/u&gt;&lt;/td&gt;&lt;td&gt;CardHolder&lt;/td&gt;&lt;/tr&gt;&lt;/tbody&gt;&lt;/table&gt;" style="text;html=1;overflow=fill;recursiveResize=1;autosize=1;labelBackgroundColor=none;labelBorderColor=none;shadow=0;glass=0;rounded=0;fillColor=default;" parent="ga0Zw6LBFhbuao-3WzkD-1" vertex="1">
          <mxGeometry x="590" y="480" width="170" height="50" as="geometry" />
        </mxCell>
        <mxCell id="jYypmv3KxmKNTcZHKzyZ-1" style="edgeStyle=orthogonalEdgeStyle;rounded=0;orthogonalLoop=1;jettySize=auto;html=1;" parent="ga0Zw6LBFhbuao-3WzkD-1" source="z86gewtXU5tHiEog-a07-0" target="MrUzFp80nVnipoG-I0D1-14" edge="1">
          <mxGeometry relative="1" as="geometry">
            <Array as="points">
              <mxPoint x="720" y="230" />
              <mxPoint x="610" y="230" />
            </Array>
          </mxGeometry>
        </mxCell>
        <mxCell id="60w5g75AV5GE3zg5vpqL-0" style="edgeStyle=orthogonalEdgeStyle;rounded=0;orthogonalLoop=1;jettySize=auto;html=1;" parent="ga0Zw6LBFhbuao-3WzkD-1" source="z86gewtXU5tHiEog-a07-0" target="MrUzFp80nVnipoG-I0D1-14" edge="1">
          <mxGeometry relative="1" as="geometry">
            <Array as="points">
              <mxPoint x="750" y="220" />
              <mxPoint x="660" y="220" />
            </Array>
          </mxGeometry>
        </mxCell>
        <mxCell id="z86gewtXU5tHiEog-a07-0" value="&lt;table style=&quot;width: 100% ; height: 100% ; border-collapse: collapse&quot; width=&quot;100%&quot; border=&quot;1&quot;&gt;&lt;tbody&gt;&lt;tr&gt;&lt;td&gt;&lt;b&gt;Weekday&lt;/b&gt;&lt;/td&gt;&lt;td&gt;&lt;br&gt;&lt;/td&gt;&lt;td&gt;&lt;br&gt;&lt;/td&gt;&lt;/tr&gt;&lt;tr&gt;&lt;td style=&quot;text-align: center&quot;&gt;&lt;u&gt;Weekday&lt;/u&gt;&lt;/td&gt;&lt;td style=&quot;text-align: center&quot;&gt;&lt;u&gt;Year&lt;/u&gt;&lt;/td&gt;&lt;td style=&quot;text-align: center&quot;&gt;WeekdayPriceFactor&lt;br&gt;&lt;/td&gt;&lt;/tr&gt;&lt;/tbody&gt;&lt;/table&gt;" style="text;html=1;overflow=fill;recursiveResize=1;autosize=1;labelBackgroundColor=none;labelBorderColor=none;fillColor=default;" parent="ga0Zw6LBFhbuao-3WzkD-1" vertex="1">
          <mxGeometry x="680" y="160" width="220" height="50" as="geometry" />
        </mxCell>
        <mxCell id="jYypmv3KxmKNTcZHKzyZ-0" style="edgeStyle=orthogonalEdgeStyle;rounded=0;orthogonalLoop=1;jettySize=auto;html=1;" parent="ga0Zw6LBFhbuao-3WzkD-1" source="z86gewtXU5tHiEog-a07-1" target="z86gewtXU5tHiEog-a07-0" edge="1">
          <mxGeometry relative="1" as="geometry">
            <Array as="points">
              <mxPoint x="940" y="230" />
              <mxPoint x="760" y="230" />
            </Array>
          </mxGeometry>
        </mxCell>
        <mxCell id="EwW54tCKNSqQOQ-Ez3Qj-0" style="edgeStyle=orthogonalEdgeStyle;rounded=0;orthogonalLoop=1;jettySize=auto;html=1;" edge="1" parent="ga0Zw6LBFhbuao-3WzkD-1" source="z86gewtXU5tHiEog-a07-1" target="IGMXOhCDPmq3_l0k84RG-2">
          <mxGeometry relative="1" as="geometry">
            <Array as="points">
              <mxPoint x="930" y="220" />
              <mxPoint x="910" y="220" />
              <mxPoint x="910" y="130" />
              <mxPoint x="610" y="130" />
            </Array>
          </mxGeometry>
        </mxCell>
        <mxCell id="z86gewtXU5tHiEog-a07-1" value="&lt;table style=&quot;width: 100% ; height: 100% ; border-collapse: collapse&quot; width=&quot;100%&quot; border=&quot;1&quot;&gt;&lt;tbody&gt;&lt;tr&gt;&lt;td&gt;&lt;b&gt;Year&lt;/b&gt;&lt;/td&gt;&lt;td&gt;&lt;br&gt;&lt;/td&gt;&lt;/tr&gt;&lt;tr&gt;&lt;td style=&quot;text-align: center&quot;&gt;&lt;u&gt;Year&lt;/u&gt;&lt;/td&gt;&lt;td style=&quot;text-align: center&quot;&gt;ProfitFactor&lt;br&gt;&lt;/td&gt;&lt;/tr&gt;&lt;/tbody&gt;&lt;/table&gt;" style="text;html=1;overflow=fill;recursiveResize=1;autosize=1;labelBackgroundColor=none;labelBorderColor=none;fillColor=default;" parent="ga0Zw6LBFhbuao-3WzkD-1" vertex="1">
          <mxGeometry x="920" y="160" width="120" height="50" as="geometry" />
        </mxCell>
        <mxCell id="NOUOO4Ck35DavKjoOw_j-0" style="edgeStyle=orthogonalEdgeStyle;shape=connector;rounded=0;orthogonalLoop=1;jettySize=auto;html=1;labelBackgroundColor=default;strokeColor=default;fontFamily=Helvetica;fontSize=11;fontColor=default;endArrow=classic;endFill=1;" parent="ga0Zw6LBFhbuao-3WzkD-1" source="uOxJAcVdQEDiNYKlrigL-0" target="MrUzFp80nVnipoG-I0D1-17" edge="1">
          <mxGeometry relative="1" as="geometry">
            <Array as="points">
              <mxPoint x="387" y="700" />
              <mxPoint x="320" y="700" />
              <mxPoint x="320" y="460" />
              <mxPoint x="390" y="460" />
            </Array>
          </mxGeometry>
        </mxCell>
        <mxCell id="uOxJAcVdQEDiNYKlrigL-0" value="&lt;table style=&quot;width: 100% ; height: 100% ; border-collapse: collapse&quot; width=&quot;100%&quot; border=&quot;1&quot;&gt;&lt;tbody&gt;&lt;tr&gt;&lt;td&gt;&lt;b&gt;Is_Contact&lt;/b&gt;&lt;/td&gt;&lt;td&gt;&lt;br&gt;&lt;/td&gt;&lt;td&gt;&lt;br&gt;&lt;/td&gt;&lt;td&gt;&lt;br&gt;&lt;/td&gt;&lt;/tr&gt;&lt;tr&gt;&lt;td&gt;&lt;u&gt;ReservationNumber&lt;/u&gt;&lt;/td&gt;&lt;td&gt;PassportNumber&lt;/td&gt;&lt;td&gt;Phone Number&lt;br&gt;&lt;/td&gt;&lt;td&gt;E-mail&lt;br&gt;&lt;/td&gt;&lt;/tr&gt;&lt;/tbody&gt;&lt;/table&gt;" style="text;html=1;overflow=fill;recursiveResize=1;autosize=1;labelBackgroundColor=none;labelBorderColor=none;shadow=0;glass=0;rounded=0;fillColor=default;" parent="ga0Zw6LBFhbuao-3WzkD-1" vertex="1">
          <mxGeometry x="337" y="640" width="350" height="50" as="geometry" />
        </mxCell>
        <mxCell id="9bWeTbANRgO0XyGLLaU1-0" style="edgeStyle=orthogonalEdgeStyle;rounded=0;orthogonalLoop=1;jettySize=auto;html=1;" parent="ga0Zw6LBFhbuao-3WzkD-1" source="7sLOLATGpEdt703XOfM0-0" target="MrUzFp80nVnipoG-I0D1-17" edge="1">
          <mxGeometry relative="1" as="geometry">
            <Array as="points">
              <mxPoint x="580" y="470" />
              <mxPoint x="420" y="470" />
            </Array>
          </mxGeometry>
        </mxCell>
        <mxCell id="9bWeTbANRgO0XyGLLaU1-1" style="edgeStyle=orthogonalEdgeStyle;rounded=0;orthogonalLoop=1;jettySize=auto;html=1;" parent="ga0Zw6LBFhbuao-3WzkD-1" source="7sLOLATGpEdt703XOfM0-0" target="tErhHAeKlasX0cMtOekA-0" edge="1">
          <mxGeometry relative="1" as="geometry">
            <Array as="points">
              <mxPoint x="680" y="380" />
              <mxPoint x="410" y="380" />
            </Array>
          </mxGeometry>
        </mxCell>
        <mxCell id="7sLOLATGpEdt703XOfM0-0" value="&lt;table border=&quot;1&quot; width=&quot;100%&quot; style=&quot;width: 100% ; height: 100% ; border-collapse: collapse&quot;&gt;&lt;tbody&gt;&lt;tr&gt;&lt;td&gt;&lt;b&gt;Has_Reservation&lt;/b&gt;&lt;/td&gt;&lt;td&gt;&lt;br&gt;&lt;/td&gt;&lt;/tr&gt;&lt;tr&gt;&lt;td style=&quot;text-align: center&quot;&gt;&lt;u&gt;ReservationNumber&lt;/u&gt;&lt;/td&gt;&lt;td&gt;&lt;u&gt;PassportNumber&lt;/u&gt;&lt;/td&gt;&lt;/tr&gt;&lt;/tbody&gt;&lt;/table&gt;" style="text;html=1;overflow=fill;recursiveResize=1;autosize=1;labelBackgroundColor=none;labelBorderColor=none;shadow=0;glass=0;rounded=0;fillColor=default;" parent="ga0Zw6LBFhbuao-3WzkD-1" vertex="1">
          <mxGeometry x="510" y="319" width="230" height="50" as="geometry" />
        </mxCell>
      </root>
    </mxGraphModel>
  </diagram>
</mxfile>
